<?xml version="1.0" encoding="utf-8"?>
<!-- Generator: Adobe Illustrator 24.0.3, SVG Export Plug-In . SVG Version: 6.00 Build 0)  -->
<svg version="1.1" id="layer" xmlns="http://www.w3.org/2000/svg" xmlns:xlink="http://www.w3.org/1999/xlink" x="0px" y="0px"
	 viewBox="0 0 16 16" style="enable-background:new 0 0 16 16;" xml:space="preserve">
<style type="text/css">
	.st0{fill:#1DA1F2;}
	.st1{fill:#FFFFFF;}
</style>
<path id="bg_1_" class="st0" d="M8.01,0C3.58,0,0,3.58,0,7.99s3.58,8,8.01,8c4.41,0,7.99-3.59,7.99-8C16,3.56,12.42,0,8.01,0z"/>
<path id="ic" class="st1" d="M13.59,5.21c-0.37,0.16-0.76,0.27-1.18,0.32c0.42-0.25,0.75-0.66,0.9-1.13c-0.4,0.23-0.84,0.4-1.3,0.49
	c-0.37-0.4-0.91-0.65-1.5-0.65c-1.13,0-2.05,0.92-2.05,2.05c0,0.16,0.02,0.32,0.05,0.47c-1.7-0.08-3.21-0.9-4.23-2.14
	c-0.18,0.3-0.28,0.65-0.28,1.03c0,0.71,0.36,1.34,0.91,1.71C4.59,7.35,4.28,7.26,4,7.11v0.03c0,0.99,0.71,1.82,1.64,2.01
	C5.47,9.19,5.29,9.22,5.1,9.22c-0.13,0-0.26-0.01-0.38-0.04c0.26,0.81,1.02,1.41,1.92,1.42c-0.7,0.55-1.59,0.88-2.54,0.88
	c-0.16,0-0.32-0.01-0.49-0.03c0.91,0.58,1.99,0.92,3.15,0.92c3.77,0,5.83-3.12,5.83-5.83c0-0.09,0-0.17-0.01-0.26
	c0.4-0.29,0.75-0.65,1.02-1.06C13.61,5.22,13.59,5.21,13.59,5.21z"/>
</svg>
