<?xml version="1.0" encoding="utf-8"?>
<!-- Generator: Adobe Illustrator 24.0.3, SVG Export Plug-In . SVG Version: 6.00 Build 0)  -->
<svg version="1.1" id="layer" xmlns="http://www.w3.org/2000/svg" xmlns:xlink="http://www.w3.org/1999/xlink" x="0px" y="0px"
	 viewBox="0 0 16 16" style="enable-background:new 0 0 16 16;" xml:space="preserve">
<style type="text/css">
	.st0{fill:#FFFFFF;}
	.st1{fill:#14305D;}
</style>
<path id="bg" class="st0" d="M8.01,0C3.58,0,0,3.58,0,7.99s3.58,8,8.01,8c4.41,0,7.99-3.59,7.99-8C16,3.56,12.42,0,8.01,0z"/>
<path id="ic" class="st1" d="M16,8c0-4.42-3.58-8-8-8S0,3.58,0,8c0,3.87,2.75,7.1,6.4,7.84V10.4H4.8V8h1.6V6
	c0-1.54,1.26-2.8,2.8-2.8h2v2.4H9.6c-0.44,0-0.8,0.36-0.8,0.8V8h2.4v2.4H8.8v5.56C12.84,15.56,16,12.15,16,8z"/>
</svg>
