<?xml version="1.0" encoding="utf-8"?>
<!-- Generator: Adobe Illustrator 24.0.3, SVG Export Plug-In . SVG Version: 6.00 Build 0)  -->
<svg version="1.1" id="圖層_1" xmlns="http://www.w3.org/2000/svg" xmlns:xlink="http://www.w3.org/1999/xlink" x="0px" y="0px"
	 viewBox="0 0 360 240" style="enable-background:new 0 0 360 240;" xml:space="preserve">
<style type="text/css">
	.st0{fill:#F5F5F5;}
	.st1{fill:#01A6F0;}
	.st2{fill:#2C2C2C;}
</style>
<rect y="100" class="st0" width="360" height="140"/>
<path id="path890_2_" class="st1" d="M147.23,36.06c-6.83,0-12.39,5.57-12.39,12.4v95.21c0,6.83,5.56,12.4,12.39,12.4h72.8
	c6.83,0,12.39-5.57,12.39-12.4V65.38c0,0,0.19-2.29-0.8-4.52c-0.93-2.09-2.45-3.55-2.45-3.55c0-0.01-0.01-0.01-0.01-0.02
	L211.1,39.58c-0.01-0.01-0.02-0.02-0.03-0.03c0,0-1.54-1.47-3.83-2.45c-2.69-1.16-5.47-1.03-5.47-1.03l0.04,0L147.23,36.06z"/>
<path id="rect2684_2_" class="st0" d="M147.23,40.14h54.58c0.01,0,0.03,0,0.04,0c0,0,2.18,0.02,3.78,0.71
	c1.54,0.66,2.63,1.66,2.63,1.66c0,0,0.01,0.01,0.01,0.01l18.02,17.68c0,0,1.09,1.15,1.61,2.33c0.42,0.95,0.45,2.69,0.45,2.69
	c0,0.03,0,0.06,0,0.09v78.37c0,4.65-3.67,8.32-8.32,8.32h-72.8c-4.65,0-8.32-3.68-8.32-8.32V48.46
	C138.91,43.82,142.59,40.14,147.23,40.14L147.23,40.14z"/>
<g>
	<path class="st2" d="M172.8,80.03c0,3.67-0.75,6.47-2.24,8.4c-1.49,1.93-3.58,2.9-6.27,2.9h-5.18V68.67h5.22
		c2.69,0,4.77,0.97,6.26,2.91C172.06,73.53,172.8,76.34,172.8,80.03z M169.92,80.03c0-1.49-0.14-2.79-0.43-3.9
		c-0.29-1.11-0.68-2.03-1.18-2.75c-0.5-0.72-1.09-1.27-1.79-1.63c-0.69-0.36-1.43-0.54-2.21-0.54h-2.33v17.6h2.33
		c0.79,0,1.52-0.18,2.21-0.54c0.69-0.36,1.29-0.91,1.79-1.63c0.5-0.72,0.89-1.64,1.18-2.74C169.78,82.79,169.92,81.5,169.92,80.03z"
		/>
	<path class="st2" d="M191.33,79.97c0,1.77-0.18,3.39-0.53,4.85c-0.35,1.46-0.87,2.72-1.54,3.76c-0.67,1.05-1.48,1.86-2.43,2.43
		s-2.03,0.86-3.25,0.86c-1.21,0-2.3-0.29-3.26-0.86c-0.96-0.58-1.78-1.39-2.45-2.43c-0.67-1.04-1.18-2.3-1.54-3.76
		c-0.35-1.46-0.53-3.08-0.53-4.85c0-1.77,0.17-3.39,0.51-4.85c0.34-1.46,0.84-2.71,1.5-3.74c0.66-1.03,1.48-1.83,2.45-2.4
		c0.97-0.56,2.08-0.85,3.31-0.85c1.22,0,2.3,0.28,3.25,0.85c0.95,0.57,1.76,1.37,2.43,2.4c0.67,1.04,1.18,2.28,1.54,3.74
		C191.16,76.58,191.33,78.2,191.33,79.97z M188.29,79.97c0-1.28-0.1-2.49-0.3-3.62c-0.2-1.13-0.5-2.11-0.9-2.94
		s-0.88-1.49-1.47-1.97c-0.59-0.48-1.26-0.72-2.03-0.72c-0.79,0-1.48,0.24-2.08,0.72s-1.09,1.14-1.49,1.97s-0.69,1.81-0.88,2.94
		c-0.19,1.13-0.29,2.34-0.29,3.62c0,1.28,0.1,2.49,0.29,3.62c0.19,1.13,0.48,2.11,0.88,2.94s0.89,1.49,1.49,1.97
		c0.6,0.48,1.29,0.72,2.08,0.72c0.77,0,1.45-0.24,2.03-0.72c0.59-0.48,1.08-1.14,1.47-1.97s0.69-1.81,0.9-2.94
		C188.19,82.45,188.29,81.25,188.29,79.97z"/>
	<path class="st2" d="M205.64,91.06c-0.9,0.54-1.98,0.82-3.26,0.82c-1.26,0-2.39-0.3-3.39-0.9c-1-0.6-1.84-1.43-2.53-2.5
		c-0.68-1.07-1.21-2.32-1.57-3.76c-0.36-1.44-0.54-3.01-0.54-4.72c0-1.71,0.19-3.28,0.56-4.74c0.37-1.45,0.91-2.7,1.6-3.76
		c0.69-1.06,1.54-1.88,2.53-2.48c0.99-0.6,2.11-0.9,3.34-0.9c1.15,0,2.21,0.22,3.17,0.67c0.96,0.45,1.75,1.13,2.37,2.05l-1.79,1.95
		c-0.47-0.68-1.01-1.19-1.63-1.52c-0.62-0.33-1.28-0.5-1.98-0.5c-0.88,0-1.63,0.25-2.27,0.74c-0.64,0.49-1.17,1.15-1.58,1.98
		c-0.42,0.83-0.73,1.81-0.94,2.93c-0.21,1.12-0.32,2.31-0.32,3.57c0,1.26,0.11,2.44,0.32,3.55c0.21,1.11,0.53,2.09,0.96,2.93
		s0.96,1.51,1.62,2c0.65,0.49,1.41,0.74,2.29,0.74c0.79,0,1.49-0.21,2.1-0.64c0.61-0.43,1.09-0.95,1.46-1.57l1.73,1.89
		C207.27,89.79,206.53,90.51,205.64,91.06z"/>
	<path class="st2" d="M183.14,103.33c0,0.64-0.07,1.22-0.2,1.74c-0.13,0.52-0.33,0.97-0.58,1.34c-0.25,0.37-0.56,0.66-0.92,0.87
		c-0.36,0.21-0.77,0.31-1.23,0.31c-0.45,0-0.85-0.1-1.22-0.31c-0.36-0.21-0.67-0.5-0.92-0.87c-0.25-0.37-0.44-0.82-0.58-1.34
		s-0.2-1.1-0.2-1.74s0.07-1.23,0.2-1.76s0.32-0.99,0.57-1.36c0.25-0.37,0.55-0.66,0.91-0.87s0.77-0.31,1.23-0.31
		c0.46,0,0.87,0.1,1.23,0.31c0.36,0.21,0.67,0.5,0.92,0.87c0.25,0.37,0.44,0.83,0.58,1.36C183.07,102.1,183.14,102.69,183.14,103.33
		z M181.73,103.32c0-0.44-0.03-0.84-0.09-1.22c-0.06-0.38-0.15-0.71-0.28-0.98s-0.29-0.5-0.48-0.65c-0.19-0.16-0.42-0.24-0.67-0.24
		c-0.26,0-0.48,0.08-0.67,0.24c-0.19,0.16-0.35,0.38-0.47,0.65s-0.21,0.6-0.27,0.98s-0.09,0.78-0.09,1.22s0.03,0.84,0.09,1.21
		c0.06,0.37,0.15,0.7,0.27,0.97s0.28,0.49,0.47,0.65c0.19,0.16,0.42,0.24,0.67,0.24c0.27,0,0.5-0.08,0.69-0.24
		c0.19-0.16,0.35-0.38,0.47-0.65c0.12-0.28,0.21-0.6,0.27-0.97C181.7,104.16,181.73,103.76,181.73,103.32z"/>
	<path class="st2" d="M187.09,99.49c0.31-0.31,0.67-0.46,1.07-0.46c0.09,0,0.15,0,0.19,0.02l-0.06,1.42
		c-0.04-0.01-0.08-0.02-0.13-0.02c-0.04-0.01-0.09-0.01-0.14-0.01c-0.26,0-0.48,0.08-0.68,0.25c-0.2,0.17-0.36,0.38-0.5,0.65
		c-0.13,0.27-0.24,0.57-0.3,0.9s-0.1,0.68-0.1,1.03v4.06h-1.38v-6c0-0.32-0.01-0.66-0.02-1.03s-0.03-0.7-0.05-1h1.3
		c0.03,0.27,0.06,0.54,0.07,0.83s0.02,0.57,0.02,0.83h0.03C186.56,100.29,186.78,99.8,187.09,99.49z"/>
	<path class="st2" d="M176.34,127.97c0,1.77-0.18,3.39-0.53,4.85s-0.86,2.71-1.54,3.76c-0.67,1.05-1.48,1.86-2.43,2.43
		s-2.03,0.86-3.25,0.86c-1.22,0-2.3-0.29-3.26-0.86s-1.78-1.39-2.45-2.43c-0.67-1.04-1.18-2.3-1.54-3.76
		c-0.35-1.46-0.53-3.08-0.53-4.85c0-1.77,0.17-3.39,0.51-4.85c0.34-1.46,0.84-2.71,1.5-3.74c0.66-1.03,1.48-1.83,2.45-2.4
		s2.07-0.85,3.31-0.85c1.22,0,2.3,0.28,3.25,0.85s1.76,1.37,2.43,2.4c0.67,1.04,1.18,2.28,1.54,3.74
		C176.16,124.58,176.34,126.2,176.34,127.97z M173.3,127.97c0-1.28-0.1-2.48-0.3-3.62c-0.2-1.13-0.5-2.11-0.9-2.94
		c-0.4-0.83-0.89-1.49-1.47-1.97c-0.59-0.48-1.26-0.72-2.03-0.72c-0.79,0-1.48,0.24-2.08,0.72c-0.6,0.48-1.09,1.14-1.49,1.97
		c-0.4,0.83-0.69,1.81-0.88,2.94s-0.29,2.34-0.29,3.62c0,1.28,0.1,2.49,0.29,3.62c0.19,1.13,0.48,2.11,0.88,2.94
		c0.39,0.83,0.89,1.49,1.49,1.97c0.6,0.48,1.29,0.72,2.08,0.72c0.77,0,1.45-0.24,2.03-0.72c0.59-0.48,1.08-1.14,1.47-1.97
		c0.39-0.83,0.69-1.81,0.9-2.94C173.2,130.45,173.3,129.25,173.3,127.97z"/>
	<path class="st2" d="M194.04,128.03c0,3.67-0.75,6.47-2.24,8.4c-1.49,1.93-3.58,2.9-6.27,2.9h-5.18v-22.66h5.22
		c2.69,0,4.77,0.97,6.26,2.91C193.29,121.53,194.04,124.34,194.04,128.03z M191.16,128.03c0-1.49-0.14-2.79-0.43-3.9
		c-0.29-1.11-0.68-2.03-1.18-2.75c-0.5-0.72-1.09-1.27-1.78-1.63c-0.69-0.36-1.43-0.54-2.22-0.54h-2.33v17.6h2.33
		c0.79,0,1.52-0.18,2.22-0.54c0.69-0.36,1.29-0.91,1.78-1.63c0.5-0.72,0.89-1.64,1.18-2.74
		C191.01,130.79,191.16,129.5,191.16,128.03z"/>
	<path class="st2" d="M202.16,119.14v20.19h-2.88v-20.19h-4.32v-2.46h11.52v2.46H202.16z"/>
</g>
</svg>
