<?xml version="1.0" encoding="utf-8"?>
<!-- Generator: Adobe Illustrator 24.0.3, SVG Export Plug-In . SVG Version: 6.00 Build 0)  -->
<svg version="1.1" id="圖層_1" xmlns="http://www.w3.org/2000/svg" xmlns:xlink="http://www.w3.org/1999/xlink" x="0px" y="0px"
	 viewBox="0 0 360 240" style="enable-background:new 0 0 360 240;" xml:space="preserve">
<style type="text/css">
	.st0{fill:#F5F5F5;}
	.st1{fill:#FF2116;}
	.st2{fill:#2C2C2C;}
</style>
<rect y="100" class="st0" width="360" height="140"/>
<path id="path890" class="st1" d="M147.23,36.06c-6.83,0-12.39,5.57-12.39,12.4v95.21c0,6.83,5.56,12.4,12.39,12.4h72.8
	c6.83,0,12.39-5.57,12.39-12.4V65.38c0,0,0.19-2.29-0.8-4.52c-0.93-2.09-2.45-3.55-2.45-3.55c0-0.01-0.01-0.01-0.01-0.02
	L211.1,39.58c-0.01-0.01-0.02-0.02-0.03-0.03c0,0-1.54-1.47-3.83-2.45c-2.69-1.16-5.47-1.03-5.47-1.03l0.04,0L147.23,36.06z"/>
<path id="rect2684" class="st0" d="M147.23,40.14h54.58c0.01,0,0.03,0,0.04,0c0,0,2.18,0.02,3.78,0.71
	c1.54,0.66,2.63,1.66,2.63,1.66c0,0,0.01,0.01,0.01,0.01l18.02,17.68c0,0,1.09,1.15,1.61,2.33c0.42,0.95,0.45,2.69,0.45,2.69
	c0,0.03,0,0.06,0,0.09v78.37c0,4.65-3.67,8.32-8.32,8.32h-72.8c-4.65,0-8.32-3.68-8.32-8.32V48.46
	C138.91,43.82,142.59,40.14,147.23,40.14L147.23,40.14z"/>
<path id="path2697" class="st1" d="M154.32,109.21c-3.36-3.36,0.28-7.98,10.15-12.89l6.21-3.09l2.42-5.29
	c1.33-2.91,3.32-7.66,4.41-10.56l1.99-5.26l-1.37-3.9c-1.69-4.79-2.29-11.99-1.22-14.58c1.45-3.51,6.21-3.15,8.09,0.61
	c1.47,2.94,1.32,8.25-0.42,14.96l-1.43,5.5l1.26,2.14c0.69,1.18,2.72,3.97,4.5,6.2l3.35,4.16l4.16-0.54
	c13.22-1.73,17.75,1.21,17.75,5.41c0,5.31-10.38,5.74-19.1-0.38c-1.96-1.38-3.31-2.75-3.31-2.75s-5.46,1.11-8.15,1.84
	c-2.78,0.75-4.16,1.22-8.23,2.59c0,0-1.43,2.07-2.36,3.58c-3.46,5.6-7.5,10.25-10.38,11.94
	C159.41,110.79,156.03,110.91,154.32,109.21z M159.6,107.33c1.89-1.17,5.72-5.69,8.36-9.89l1.07-1.7l-4.88,2.45
	c-7.54,3.79-10.99,7.36-9.2,9.52C155.96,108.93,157.17,108.83,159.6,107.33L159.6,107.33z M208.57,93.58
	c1.85-1.29,1.58-3.9-0.51-4.96c-1.63-0.82-2.94-0.99-7.16-0.92c-2.6,0.18-6.77,0.7-7.48,0.86c0,0,2.29,1.59,3.31,2.17
	c1.36,0.77,4.65,2.21,7.05,2.95C206.16,94.4,207.53,94.32,208.57,93.58L208.57,93.58z M188.88,85.39c-1.12-1.18-3.02-3.63-4.23-5.45
	c-1.58-2.07-2.37-3.53-2.37-3.53s-1.15,3.71-2.1,5.94l-2.95,7.3l-0.86,1.65c0,0,4.55-1.49,6.86-2.1c2.45-0.64,7.43-1.62,7.43-1.62
	L188.88,85.39z M182.53,59.95c0.29-2.39,0.41-4.79-0.36-5.99c-2.13-2.33-4.71-0.39-4.27,5.16c0.15,1.87,0.61,5.06,1.23,7.02
	l1.13,3.57l0.79-2.69C181.48,65.54,182.15,62.35,182.53,59.95L182.53,59.95z"/>
<g id="g858">
	<path id="path845" class="st2" d="M160.04,118.11h5.46c1.74,0,3.16,0.17,4.25,0.5c1.09,0.32,2,1.05,2.75,2.18
		c0.74,1.12,1.11,2.47,1.11,4.05c0,1.45-0.3,2.7-0.9,3.75c-0.6,1.04-1.42,1.8-2.44,2.26c-1.01,0.46-2.57,0.69-4.68,0.69h-1.89v8.61
		h-3.65V118.11z M163.69,120.94v7.69h1.81c1.61,0,2.73-0.3,3.34-0.9c0.62-0.6,0.94-1.58,0.94-2.94c0-1.01-0.2-1.83-0.61-2.45
		c-0.41-0.64-0.86-1.02-1.36-1.16c-0.48-0.15-1.25-0.23-2.31-0.23L163.69,120.94z"/>
	<path id="path847" class="st2" d="M176.4,118.11h4.96c2.4,0,4.32,0.43,5.75,1.28c1.44,0.85,2.53,2.12,3.26,3.8
		c0.74,1.68,1.11,3.54,1.11,5.59c0,2.15-0.33,4.08-1,5.77c-0.66,1.68-1.67,3.04-3.04,4.07c-1.36,1.03-3.29,1.55-5.81,1.55h-5.23
		V118.11z M180.05,121.04v16.2h1.52c2.12,0,3.66-0.73,4.62-2.2c0.96-1.48,1.44-3.44,1.44-5.89c0-5.4-2.02-8.11-6.06-8.11
		L180.05,121.04z"/>
	<path id="path849" class="st2" d="M194.99,118.11h12.24v2.92h-8.59v6.59h6.88v2.92h-6.88v9.61h-3.65V118.11z"/>
</g>
</svg>
