<svg id="圖層_1" data-name="圖層 1" xmlns="http://www.w3.org/2000/svg" xmlns:xlink="http://www.w3.org/1999/xlink" viewBox="0 0 424.28 68.85"><defs><style>.cls-1{fill:#fefe01;}.cls-2{fill:#fe9c00;}.cls-3{fill:#339d03;}.cls-4{fill:#070607;}.cls-5{fill:#070808;}.cls-6{fill:#0e0c0c;}.cls-7{fill:#191610;}.cls-8{fill:#2b2517;}.cls-9{fill:#37430a;}.cls-10{fill:#2b2518;}.cls-11{fill:#342e1c;}.cls-12{fill:#121a0e;}.cls-13{fill:#763e1d;}.cls-14{fill:#843f13;}.cls-15{fill:#74542e;}.cls-16{fill:#9a6236;}.cls-17{fill:#61433b;}.cls-18{fill:#6d300e;}.cls-19{fill:#4c423e;}.cls-20{fill:#7c6f16;}.cls-21{fill:#8c8312;}.cls-22{fill:#fefefe;}.cls-23{fill:#552e16;}.cls-24{fill:#4e1a0b;}.cls-25{fill:#2c490a;}.cls-26{fill:#aa6b2e;}.cls-27{fill:url(#新增漸層色票_1);}.cls-28{fill:url(#新增漸層色票_1-2);}.cls-29{fill:url(#新增漸層色票_1-3);}.cls-30{fill:url(#新增漸層色票_1-4);}.cls-31{fill:url(#新增漸層色票_1-5);}.cls-32{fill:url(#新增漸層色票_1-6);}.cls-33{fill:url(#新增漸層色票_1-7);}</style><linearGradient id="新增漸層色票_1" x1="88.41" y1="39.68" x2="413.1" y2="39.68" gradientUnits="userSpaceOnUse"><stop offset="0" stop-color="#39b54a"/><stop offset="1" stop-color="#0071bc"/></linearGradient><linearGradient id="新增漸層色票_1-2" x1="88.41" y1="39.32" x2="413.1" y2="39.32" xlink:href="#新增漸層色票_1"/><linearGradient id="新增漸層色票_1-3" x1="88.41" y1="39.7" x2="413.1" y2="39.7" xlink:href="#新增漸層色票_1"/><linearGradient id="新增漸層色票_1-4" x1="88.41" y1="39" x2="413.1" y2="39" xlink:href="#新增漸層色票_1"/><linearGradient id="新增漸層色票_1-5" x1="88.41" y1="39.46" x2="413.1" y2="39.46" xlink:href="#新增漸層色票_1"/><linearGradient id="新增漸層色票_1-6" x1="88.41" y1="39.46" x2="413.1" y2="39.46" xlink:href="#新增漸層色票_1"/><linearGradient id="新增漸層色票_1-7" x1="88.41" y1="33.77" x2="413.1" y2="33.77" xlink:href="#新增漸層色票_1"/></defs><path class="cls-1" d="M19.2,65.94A31.3,31.3,0,0,1,8.54,57.78a35,35,0,0,1-5.73-9.16A34.41,34.41,0,0,1,.13,37.75a35.3,35.3,0,0,1,1-11.6A33.79,33.79,0,0,1,5.6,15.88,34.19,34.19,0,0,1,22.52,2.19,35.12,35.12,0,0,1,35.46,0,34.23,34.23,0,0,1,61.08,12.57a1.2,1.2,0,0,1,.36,1c-4.59-1.21-9.14-2.38-13.27-4.78a.81.81,0,0,0-.89.43,33.41,33.41,0,0,1-6.8,7.58c-2.1,1.59-4.32,3-6.56,4.48a2.69,2.69,0,0,0,1.11.27c.62.1,1.32-.26,1.85.35a13.13,13.13,0,0,1,.39,3.69c0,.9.11,1.78.13,2.66-.22,1.24-1.4,1.6-2.22,2.21-2.15,1.61-4.24,3.3-6.41,4.9-3.92,2.82-7.76,5.76-11.58,8.72.43-.4.88,0,1.3,0a11.8,11.8,0,0,0,2-.07c.57-.1,1.19.09,1.73-.24.88-.31,1.8,0,2.68-.2a.19.19,0,0,1,.13,0c.64.19.58.77.65,1.24.73,4.39,1.29,8.8,1.88,13.21a35.12,35.12,0,0,1,.64,5.12.94.94,0,0,1-.7,1c-2.4.59-4.76,1.37-7.2,1.87A3.49,3.49,0,0,1,19.2,65.94Z"/><path class="cls-2" d="M33.48,62.19a27.71,27.71,0,0,0,.9-4.6c.63-3.17,1.18-6.36,1.78-9.54.11-.58.59-.65,1.08-.65.94,0,1.87,0,2.81,0,.61,0,.84-.21.81-.82,0-1,0-2.08-.08-3.12-.35-.39-.8-.17-1.21-.21-.66-.07-1.36.23-2-.24.49-1,1.34-1.82,1.83-2.86a4,4,0,0,0,.45-2.34c1-.06,1.71.59,2.63.72a21.07,21.07,0,0,0,10.65-.88,9.82,9.82,0,0,0,1.12,3l1.5,1.94c0,.41-.3.31-.52.31-.7,0-1.4,0-2.11,0-.2,0-.4.14-.4.3,0,1.25-.34,2.51.06,3.76.15.56.61.36,1,.37a17.25,17.25,0,0,1,3.37,0c.55,1.11.41,2.4,1,3.52,1.09,4.26,2,8.57,2.72,12.91.21,1.2.61,2.36.76,3.57.05.4.15.78-.14,1.13H53c-.48-.42-.35-1-.35-1.52A40.06,40.06,0,0,0,52,59.53a11.16,11.16,0,0,0-1.51-4,4.74,4.74,0,0,0-2-1.76,2.7,2.7,0,0,0-2.63-.33,5.41,5.41,0,0,0-3.68,4.15,17.5,17.5,0,0,0-.74,4.76c0,.46-.07.92-.06,1.37a41.45,41.45,0,0,1-.12,4.73.6.6,0,0,1-.23.29H32.6a1.51,1.51,0,0,1-.22-1.33A48.71,48.71,0,0,1,33.48,62.19Z"/><path class="cls-3" d="M69.2,50.43c1-.08,1.72-.8,2.69-1a4.77,4.77,0,0,1,1.25-.11c1.58.61,2.14,2.12,2.75,3.43,2.17,4.68,4,9.55,6.22,14.19.17.35.38.71.12,1.11-4.35.31-8.7.24-13,.27-2.45,0-4.9.1-7.36.15a32.74,32.74,0,0,1-1.25-5.44c-.65-3.64-1.42-7.26-2.28-10.86-.1-.44-.28-.91.06-1.34,1.36-.24,2.44-1.12,3.68-1.62s2.6-1.34,4.14-1.24a.79.79,0,0,1,.57.21,16,16,0,0,1,1.92,2C68.79,50.42,69,50.56,69.2,50.43Z"/><path class="cls-3" d="M50.56,55.19a9.18,9.18,0,0,1,1.75,4.45,46.48,46.48,0,0,1,.7,8.9c-4,.38-8,.21-12,.19l.06-.12a25.06,25.06,0,0,0,0-5c0-.4-.17-.82.19-1.16a9.65,9.65,0,0,1,.5-3.33c1.39-.82,3-1.25,4.4-2,1-.51,2-.91,3-1.48C49.58,55.34,50,55,50.56,55.19Z"/><path class="cls-3" d="M33.48,62.19c.36,1.29-.38,2.43-.51,3.65-.1,1-.33,1.91-.37,2.89a21.86,21.86,0,0,1-13.4-2.79,48.59,48.59,0,0,1,5.46-1.41c.95-.25,1.82-.85,2.87-.76.31,0,.36-.29.42-.54a1.8,1.8,0,0,1,.95,0c1.11.31,2-.59,3.09-.56A4.72,4.72,0,0,0,33.48,62.19Z"/><path class="cls-4" d="M28.9,63.2c-.31.22-.62.55-1,0-.79-5.86-1.58-11.72-2.41-17.57A4.82,4.82,0,0,0,25,43.5c1-.41,1.15-.3,1.3.8q.76,5.66,1.55,11.3C28.19,58.13,28.55,60.67,28.9,63.2Z"/><path class="cls-5" d="M82.23,68.09a18.56,18.56,0,0,0-1.58-3.63C78.91,61,77.71,57.3,76.06,53.79a11.25,11.25,0,0,0-2.92-4.43c1.27-.07,1.68,1,2.18,1.79a46.91,46.91,0,0,1,3.66,8,82.22,82.22,0,0,0,3.74,8.16c.12.24.42.57.2.86S82.46,68.18,82.23,68.09Z"/><path class="cls-6" d="M37.13,28.47l-.42-6.62c.17-.57.54-.33.88-.22a18.27,18.27,0,0,1,.33,3.13c.12,1,0,2,.14,3A1,1,0,0,1,37.38,29C37,29,37.08,28.7,37.13,28.47Z"/><path class="cls-7" d="M40.38,16.57a33.2,33.2,0,0,0,6.94-8c.45-.77.62-.18.85.15-1.17,1.28-2,2.81-3.23,4.07a44.51,44.51,0,0,1-4.33,4C40.39,16.87,40.27,16.81,40.38,16.57Z"/><path class="cls-8" d="M18.34,44.11l-1.45.08L16.81,44l4.61-3.45,7.28-5.37a.23.23,0,0,1,0,.32L21.5,41c-1,.77-2.06,1.53-3.06,2.32-.17.14-.74.36-.09.67.07,0,.09.08.06.11A.1.1,0,0,1,18.34,44.11Z"/><path class="cls-9" d="M58.35,50.87a43.67,43.67,0,0,0,1.21,6.19c.72,3.82,1.5,7.63,2.26,11.45l-.38,0Q60.32,62.77,59.2,57c-.39-2.07-1-4.08-1.29-6.18-.07-.21,0-.26.21-.21Z"/><path class="cls-10" d="M28.74,35.47l0-.32,7.55-5.78a2.53,2.53,0,0,0,.88-.9l.25.51C34.55,31.22,31.69,33.41,28.74,35.47Z"/><path class="cls-11" d="M40.38,16.57l.23.28c-1.78,1.5-3.8,2.65-5.68,4-.24.17-.78.25-.15.61.08,0,.1.08.08.12a.1.1,0,0,1-.08.05A3.8,3.8,0,0,1,33,21.52,88.3,88.3,0,0,0,40.38,16.57Z"/><path class="cls-12" d="M69.2,50.43c-.08.29-.28.53-.5.23a15.3,15.3,0,0,1-2-2.44A6.24,6.24,0,0,1,69.2,50.43Z"/><path class="cls-13" d="M37.6,43c.74,0,1.49,0,2.23,0,.37,0,.81-.11,1,.42-.89,0-1.79,0-2.68,0C37.85,43.46,37.29,43.68,37.6,43Z"/><path class="cls-14" d="M52.81,47c-.26,0-.28-.12-.28-.31,0-1,0-2,0-3,0-.36,0-.73.46-.83.07,0,.09.08.07.12S53,43,53,43C52.72,44.35,52.93,45.67,52.81,47Z"/><path class="cls-15" d="M58.12,50.63l-.21.21a15.57,15.57,0,0,1-.77-3.44c.72.13.45.83.51,1.18C57.77,49.28,58,49.94,58.12,50.63Z"/><path class="cls-16" d="M54.28,40.67a4.4,4.4,0,0,1-1.12-3l.45-.25c.15.3-.14.47-.19.71C53.44,39.05,54.24,39.73,54.28,40.67Z"/><path class="cls-17" d="M53.42,38.11c-.08-.28.11-.48.19-.71L55,36.51l.13.17Z"/><path class="cls-18" d="M53,43a1.09,1.09,0,0,0,0-.18c.93-.19,1.91.22,2.81-.25.11.08.31.16.32.26,0,.28-.23.17-.36.17Z"/><path class="cls-19" d="M34.78,21.61v-.17c.94,0,1.9-.28,2.81.19-.3.05-.66-.14-.88.22C36.1,21.54,35.42,21.76,34.78,21.61Z"/><path class="cls-20" d="M24.87,43.51a8.34,8.34,0,0,1-2.68.2C23.05,43.17,24,43.59,24.87,43.51Z"/><path class="cls-21" d="M18.34,44.11a.42.42,0,0,1,0-.16h2.11A5.24,5.24,0,0,1,18.34,44.11Z"/><path class="cls-22" d="M50.15,43.29c0,1.05,0,2.09,0,3.13,0,.51-.07.8-.69.78-2-.05-4,0-6-.06a19.06,19.06,0,0,1-.11-3.29c0-.38.18-.68.54-.67A48.58,48.58,0,0,1,50.15,43.29Z"/><path class="cls-22" d="M50.56,55.19A47.52,47.52,0,0,1,42,59.08c-.46-.91.14-1.68.44-2.42a5.08,5.08,0,0,1,4.37-3.45,4.13,4.13,0,0,1,1.9.39C49.38,54,50.21,54.33,50.56,55.19Z"/><path class="cls-23" d="M46.71,53.37A6,6,0,0,0,42,59.08a4.73,4.73,0,0,0-.47,2.19c0,.39.08.8-.23,1.13a3.86,3.86,0,0,1,.07-2.33,11.91,11.91,0,0,1,1.34-4.49,5.14,5.14,0,0,1,3.16-2.43C46.14,53.16,46.52,52.88,46.71,53.37Z"/><path class="cls-24" d="M50.15,43.29c-1.94,0-3.88,0-5.82,0-.6,0-.83.15-.81.77,0,1,0,2.08-.07,3.12-.5-1.23-.14-2.51-.18-3.77,0-.31.31-.35.57-.35l6-.1C50.11,42.92,50.16,43.1,50.15,43.29Z"/><path class="cls-25" d="M41.08,63.56a12.63,12.63,0,0,1,0,5A34.05,34.05,0,0,1,41.08,63.56Z"/><path class="cls-26" d="M46.71,53.37c-.24-.29-.59-.12-.88-.22,1-.21,2-.42,2.84.45Z"/><path class="cls-27" d="M107.58,22c1,.08,1.48.32,1.48.76,0,.16-.32.4-.88.68s-1,.64-1,1v2.16h8.33a23.21,23.21,0,0,0,1.57-1.8c1.12-1.36,1.8-2.08,2-2.08.56,0,1.48.68,2.68,2s1.89,2.12,1.89,2.4c0,.45-.28.65-.8.65H93.27A46.88,46.88,0,0,0,88,28l-.65-1.85a49.49,49.49,0,0,0,6.58.44H103v-2a19.23,19.23,0,0,0-.32-3.33C104.33,21.44,106,21.69,107.58,22ZM94.76,40.08h20.87a9.72,9.72,0,0,0,.92-1c.77-.73,1.29-1.09,1.61-1.09a6.63,6.63,0,0,1,2.52,1.41c1.2.92,1.85,1.56,1.85,1.88s-.33.68-.89,1.08c-.76.52-1.12,1-1.12,1.44v10A3.44,3.44,0,0,1,118.44,57a6.59,6.59,0,0,1-2.81.84c-.28,0-.52-.52-.76-1.48-.32-1.17-1.6-2.13-3.76-2.93l.16-.76a33.16,33.16,0,0,0,4.36.32c.4,0,.64-.4.64-1.28V41.2H93.76V56.83c0,.48-.73.88-2.09,1.16-.64,0-1.12.08-1.36.08A1.11,1.11,0,0,1,89,56.83c.08-1.45.16-2.89.16-4.37V43.84a57.2,57.2,0,0,0-.32-5.93A38.19,38.19,0,0,1,94.76,40.08Zm4.12-9.7H110.5c.45-.6.85-1.12,1.17-1.6a1.3,1.3,0,0,1,1-.6,5.72,5.72,0,0,1,2.4,1.28c1.32.88,2,1.48,2,1.84s-.24.6-.73.88a2.1,2.1,0,0,0-.72.84v4.41c0,.44-.68.76-2,1a11.17,11.17,0,0,1-1.32.12,1,1,0,0,1-1.08-1.08v-.32H99v.32c0,.52-.68.88-2,1.12a10,10,0,0,1-1.28.12,1.09,1.09,0,0,1-1.24-1.24,22.27,22.27,0,0,0,.16-2.52V32.26c0-1-.08-2.08-.16-3.44A33.66,33.66,0,0,1,98.88,30.38Zm2.57,14.1H108c.4-.52.76-1,1.08-1.36a1.45,1.45,0,0,1,1-.52,5.31,5.31,0,0,1,2.13,1.12c1.16.8,1.76,1.37,1.76,1.69s-.2.48-.52.72-.52.44-.56.68V51.5c0,.48-.64.8-1.88,1a10.5,10.5,0,0,1-1.25.12q-1.08,0-1.08-1v-.6h-7.21v1.4c0,.52-.64.88-1.92,1.12a10,10,0,0,1-1.21.12c-.84,0-1.24-.36-1.24-1.08a23.2,23.2,0,0,0,.12-2.53V46.21a28,28,0,0,0-.28-3.29A44.28,44.28,0,0,1,101.45,44.48ZM111.27,36V31.46H99V36Zm-2.65,13.9V45.57h-7.21v4.36Z"/><path class="cls-28" d="M131.46,29.46c.2-2.53.36-5.33.48-8.46l3.73,1.21c1.44.52,2.2,1,2.2,1.44s-.32.64-.92.8-.92.32-1,.6c-.2,1.6-.4,3.09-.56,4.41H137a12.05,12.05,0,0,0,1.28-1.6c1-1.21,1.52-1.85,1.68-1.85.48,0,1.29.6,2.41,1.77S144,29.66,144,29.9c0,.44-.28.64-.76.64h-7.89c-.57,4.13-1.13,7.25-1.65,9.42a50.58,50.58,0,0,1-2.28,6.69,25.07,25.07,0,0,1-3.69,5.65l-.48-.8a53.54,53.54,0,0,0,2.49-8.34,91.87,91.87,0,0,0,1.44-9.77c.08-.89.16-1.85.24-2.85-1.68,0-2.93.08-3.69.16l-.6-1.56A24.42,24.42,0,0,0,131.46,29.46Zm8.69,6.21c1.21.36,1.81.72,1.81,1.12s-.36.72-1,.8-1.09.28-1.17.44a53,53,0,0,1-2.52,8.74,45,45,0,0,1-2.13,4.53c1.81-.16,3.49-.36,5.09-.6A32,32,0,0,0,139,45.09l.48-.45a17.81,17.81,0,0,1,3.37,3.93,9.7,9.7,0,0,1,1.16,4,3.13,3.13,0,0,1-.56,1.92,2.26,2.26,0,0,1-1.6.72.94.94,0,0,1-.92-.48,6.38,6.38,0,0,1-.53-2.48,22.09,22.09,0,0,1-6,3.2c-.32,0-.44.16-.44.4a1.88,1.88,0,0,0-.08.57c-.08.32-.2.52-.36.52-.56,0-1.2-1-2-2.81-.2-.48-.52-1.32-1-2.52,1.08,0,2.12-.12,3.16-.24.6-2.41,1.08-4.61,1.45-6.7.44-2.8.84-6.17,1.16-10.09C137.63,35,138.91,35.35,140.15,35.67Zm9.66-12.74c1.2.4,1.84.8,1.84,1.2s-.36.68-1,.8-1.08.28-1.16.44c-.4,1.44-.8,2.81-1.2,4l.72.36h3.36A46.93,46.93,0,0,0,154,22.09c1.32.48,2.6.92,3.84,1.36s1.81,1,1.81,1.44c0,.28-.32.44-.88.52s-.93.16-1,.28a22.53,22.53,0,0,1-4,4h3.68a12.17,12.17,0,0,0,1-1.08c.84-1,1.4-1.57,1.68-1.57a8.8,8.8,0,0,1,2.36,1.77c.8.72,1.24,1.2,1.24,1.36a.57.57,0,0,1-.64.64H156.5v6.41h.76s.32-.32.89-1c.76-.88,1.24-1.36,1.48-1.36s.92.56,2.08,1.6c.68.64,1,1.08,1,1.24a.53.53,0,0,1-.6.6H156.5v6.58h.76s.32-.33.89-1c.76-.88,1.24-1.36,1.48-1.36s.92.52,2.08,1.56c.68.69,1,1.09,1,1.25,0,.44-.2.64-.6.64H156.5v7.49h1.56s.33-.32.93-1c.8-.88,1.36-1.36,1.6-1.36a7.21,7.21,0,0,1,2.16,1.56c.72.68,1.13,1.08,1.13,1.24a.6.6,0,0,1-.65.64h-14.1v1.85c0,.44-.6.76-1.8,1a9.41,9.41,0,0,1-1.17.12c-1,0-1.4-.4-1.4-1.12a49.36,49.36,0,0,0,.32-5.45V36.43a55,55,0,0,1-3.28,4.89l-.64-.6A65.8,65.8,0,0,0,144.08,32a83.42,83.42,0,0,0,1.76-10.21C147.21,22.17,148.53,22.53,149.81,22.93Zm2.44,7.93h-3.12v6.41h3.12Zm0,7.49h-3.12v6.58h3.12Zm0,7.7h-3.12v7.49h3.12Z"/><path class="cls-29" d="M188.19,22.17c1.09.08,1.65.36,1.65.84,0,.24-.32.48-1,.76s-1.09.72-1.09,1.12v2.85h7.7a20.75,20.75,0,0,0,1.56-1.85c1.12-1.36,1.8-2.08,2-2.08.56,0,1.49.68,2.69,2a9.1,9.1,0,0,1,1.88,2.41c0,.44-.28.64-.8.64H173.25a38.38,38.38,0,0,0-5.33.32l-.64-1.89a48.84,48.84,0,0,0,6.61.49h9.22V25.21a25.36,25.36,0,0,0-.32-3.77C184.63,21.64,186.43,21.89,188.19,22.17Zm-11.78,13.7h7a50.94,50.94,0,0,0-.44-5.49c1.2.12,2.76.32,4.64.64,1.29.16,1.93.44,1.93.76q0,.72-1.08,1.08a1,1,0,0,0-.81,1v2H194a14.51,14.51,0,0,0,1-1.12c.8-.8,1.4-1.24,1.72-1.24A7.59,7.59,0,0,1,199.45,35c1.29,1,2,1.72,2,2.08s-.32.68-1,1.12c-.85.56-1.25,1.05-1.25,1.53V50.09a3.56,3.56,0,0,1-2.12,3.33,6,6,0,0,1-2.88.92c-.33,0-.61-.52-.85-1.56-.36-1.24-1.76-2.29-4.16-3.13l.16-.8a40.89,40.89,0,0,0,4.85.32c.32,0,.48-.4.48-1.24V37h-7.06V56.67c0,.48-.64.88-1.92,1.16a9.74,9.74,0,0,1-1.2.12c-1,0-1.4-.44-1.4-1.28.2-2.53.32-4.81.32-6.9V37h-7.38V53.54c0,.52-.64.88-1.92,1.12a9.74,9.74,0,0,1-1.2.12c-1,0-1.4-.44-1.4-1.24.2-2.8.32-5.33.32-7.49V41c0-1.88-.12-4.17-.32-6.89A26,26,0,0,1,176.41,35.87Z"/><path class="cls-30" d="M313,24.29h24a14.23,14.23,0,0,0,1.32-1.6c.93-1.21,1.49-1.85,1.65-1.85.48,0,1.28.6,2.4,1.77S344,24.49,344,24.73c0,.44-.28.64-.8.64H314.37V51.66c0,1.08.64,1.64,2,1.72,2.24.12,5.16.16,8.77.16,3,0,5.37,0,7.17-.12a23,23,0,0,0,6.33-.88,5.87,5.87,0,0,1,1.29-.4,3.43,3.43,0,0,1,1.88,1,3.5,3.5,0,0,1,1.08,1.92c0,.44-.48.8-1.44,1.12a41.72,41.72,0,0,1-5.21.61c-3.21.2-6.93.32-11.1.32a91,91,0,0,1-11.46-.44,9.25,9.25,0,0,1-2.28-.81,3,3,0,0,1-1.2-2.68V25.41c-.89,0-1.57.08-2.05.12L307.48,24A32.39,32.39,0,0,0,313,24.29Zm8.29,16.59h1.89c.4-.56.76-1.08,1.08-1.48a1.38,1.38,0,0,1,1-.57A5.43,5.43,0,0,1,327.35,40c1.17.8,1.77,1.36,1.77,1.68s-.24.48-.64.72a1.63,1.63,0,0,0-.64.68v6.89c0,.48-.61.81-1.81,1a9.3,9.3,0,0,1-1.16.12c-.72,0-1.08-.32-1.08-1v-.6h-3v.92c0,.49-.64.81-1.84,1a8.64,8.64,0,0,1-1.16.12c-.84,0-1.24-.36-1.24-1.09a19.92,19.92,0,0,0,.16-2.36V42.28c0-.88-.08-1.92-.16-3.12A30.41,30.41,0,0,1,321.26,40.88Zm4.61-12.38h6.37c.4-.56.76-1.05,1.09-1.45s.6-.6.92-.6a4.78,4.78,0,0,1,2.24,1.21c1.2.84,1.84,1.44,1.84,1.8s-.2.52-.6.8a1.21,1.21,0,0,0-.64.76v5.61c0,.48-.68.8-2,1a11.43,11.43,0,0,1-1.28.12,1,1,0,0,1-1.13-1.12v-.16h-7.33V37c0,.52-.68.88-2,1.12a10.2,10.2,0,0,1-1.24.12A1.09,1.09,0,0,1,320.82,37a22.88,22.88,0,0,0,.12-2.48V30.06c0-1,0-2.08-.12-3.45A35.25,35.25,0,0,1,325.87,28.5Zm-2.08,19.87V42h-3v6.41Zm8.89-13V29.62h-7.33v5.77Zm2.25,5.49h2.16c.4-.64.76-1.16,1.08-1.6a1.29,1.29,0,0,1,1-.61,5,5,0,0,1,2.2,1.21c1.2.84,1.84,1.44,1.84,1.76s-.24.56-.68.8-.68.52-.72.76v6.57c0,.48-.64.81-1.88,1a10.15,10.15,0,0,1-1.25.12c-.76,0-1.12-.32-1.12-1v-.6h-3.4v.76c0,.49-.6.81-1.81,1a9.74,9.74,0,0,1-1.2.12c-.72,0-1.08-.36-1.08-1.13.08-1.24.16-2.48.16-3.76V44.16a43.89,43.89,0,0,0-.32-5.17A37,37,0,0,1,334.93,40.88Zm2.6,7.33V42h-3.4v6.25Z"/><path class="cls-31" d="M361.41,25.33c1.6.48,2.45.92,2.45,1.28s-.4.84-1.17,1.05c-.92.16-1.36.36-1.36.68a23.66,23.66,0,0,1-3.4,5.93,21.29,21.29,0,0,1-3.09,3.36,28.45,28.45,0,0,1-6.49,4l-.48-.76A32.1,32.1,0,0,0,354,33.55,34.74,34.74,0,0,0,357.28,24C358.65,24.37,360,24.85,361.41,25.33Zm5.81,9.3c1.6.44,2.41.84,2.41,1.24s-.48.72-1.37.84c-.72.12-1.16.32-1.28.56a38.32,38.32,0,0,1-4.09,8.18,32.76,32.76,0,0,1-4,5.25c5.13-.25,9.93-.57,14.5-1a37.56,37.56,0,0,0-4.16-6.17l.6-.48a37.26,37.26,0,0,1,8.37,5.89q2.28,2.53,2.28,4.45a4.05,4.05,0,0,1-.88,2.56,2.26,2.26,0,0,1-1.8,1.05,3.36,3.36,0,0,1-1.76-.52c-.44-.41-.92-1.73-1.49-3.89a14.09,14.09,0,0,0-.6-1.68,88.68,88.68,0,0,1-17.71,4.68c-.76.08-1.12.24-1.12.48a2.19,2.19,0,0,0-.16.65c-.16.4-.36.6-.64.6-.64,0-1.36-1.13-2.24-3.29-.25-.6-.65-1.6-1.17-3l6-.24a69,69,0,0,0,3.05-6.74,67.65,67.65,0,0,0,3-10.73C364.54,33.87,366,34.31,367.22,34.63Zm2.73-11a12.76,12.76,0,0,0,1.28-1.32c.48-.48.84-.73,1.08-.73s1,.53,2.08,1.53c1.21,1.2,1.81,2.08,1.81,2.56,0,.24-.52.6-1.57,1-.84.44-1.24.85-1.24,1.21a9.37,9.37,0,0,0,1.77,4A13,13,0,0,0,378.48,35a24.16,24.16,0,0,0,5.85,2.88l-.12.92a5.19,5.19,0,0,0-3.28,2.65c-.49.76-.89,1.12-1.13,1.12s-1-.52-2.12-1.56a15.6,15.6,0,0,1-4.09-5.21A22.32,22.32,0,0,1,371.83,31a27.43,27.43,0,0,1-.92-6.29c-3.73,0-6.09.08-7.05.16l-.65-1.56A54.29,54.29,0,0,0,370,23.65Z"/><path class="cls-32" d="M403.6,30.74c1.45,1,2.21,1.64,2.21,2s-.32.77-.92,1.13a1.62,1.62,0,0,0-.65,1.2v3.76c0,1.29,0,3,.12,5.17,0,.52-.68.89-2,1.13a13.27,13.27,0,0,1-1.36.12c-.76,0-1.12-.4-1.12-1.25V42.6h-5.41c-.08.92-.16,1.76-.24,2.53A30.32,30.32,0,0,1,392,52.34a26.12,26.12,0,0,1-3.6,5.29l-.8-.32a46.66,46.66,0,0,0,2-8.18,108.87,108.87,0,0,0,.68-14.06,84.51,84.51,0,0,0-.48-10.78,37.7,37.7,0,0,1,4.93,1.84,15.81,15.81,0,0,0,2.4-1.44,16.26,16.26,0,0,0,3.65-3.41c1.32,1,2.4,1.81,3.2,2.37,1.21.88,1.81,1.52,1.81,1.88s-.24.48-.64.48l-2.05-.16a43.25,43.25,0,0,1-8.45,2.09v4.48h3.76a22.91,22.91,0,0,1,1.69-2,1.74,1.74,0,0,1,1.12-.76A8,8,0,0,1,403.6,30.74Zm-8.93,4.33c0,2.32-.08,4.49-.16,6.41h5.33v-8h-5.17Zm16.43-7.33v8h5.81s.44-.4,1.24-1.28c1-1.2,1.72-1.85,2-1.85s1.2.69,2.69,2.05c.92.8,1.4,1.32,1.4,1.56,0,.4-.28.6-.8.6h-4.09V56.35c0,.52-.72.92-2.08,1.16a12.9,12.9,0,0,1-1.33.12c-.76,0-1.12-.44-1.12-1.28a48.32,48.32,0,0,0,.32-6.26V36.79H411.1a59,59,0,0,1-.73,8.34,21.54,21.54,0,0,1-3.16,7.21,29.32,29.32,0,0,1-5.33,5.29l-.8-.32a27,27,0,0,0,4.25-8.18c.92-3.12,1.4-7.81,1.4-14.06a87,87,0,0,0-.48-10.94A40.24,40.24,0,0,1,411.3,26a14.38,14.38,0,0,0,2.92-1.36,16.16,16.16,0,0,0,4.09-3c1.32,1,2.4,1.77,3.2,2.33,1.21.92,1.81,1.56,1.81,1.92s-.24.44-.64.44l-2-.12A82.48,82.48,0,0,1,411.1,27.74Z"/><path d="M238.54,20.53c.91.65,1.37,1.21,1.37,1.72a3.79,3.79,0,0,1-.2,1.17,1.35,1.35,0,0,1-.76.81c-2.64.51-5.28.86-8,1.17.5.3.81.61.81.81a2.2,2.2,0,0,0-.1.56.86.86,0,0,0-.16.51c.82-.21,1.53-.46,2.19-.66a2.42,2.42,0,0,1,.86-.21,6,6,0,0,1,1.63.46c.86.66,1.31,1.22,1.31,1.73a3.72,3.72,0,0,1-.2,1.16,1.35,1.35,0,0,1-.76.82c-1.93.4-3.81.71-5.74,1-.1.61-.15,1.27-.2,2,1.83-.3,3.66-.61,5.53-1a13.37,13.37,0,0,1,2-.21,4.87,4.87,0,0,1,2.54.87,2.51,2.51,0,0,1,1.22,2.13c0,1.06-.25,1.57-.76,1.57q-5.41,0-10,.31a2.2,2.2,0,0,1,.1.5,1.76,1.76,0,0,1-.31.82,7.12,7.12,0,0,0-.91,2c5.53-.61,9.95-1.17,13.3-1.73a7.23,7.23,0,0,1,.81-.1,7.66,7.66,0,0,1,3.56,1.17,4.15,4.15,0,0,1,1.83,3c0,1.22-.51,1.83-1.43,1.83a32,32,0,0,1-4.41-.41,18.38,18.38,0,0,0-3.3-.4c-2.85,0-5.43,0-7.72.1a39.71,39.71,0,0,0,6.45,5.08c2.38,1.62,6.39,3.4,12,5.33V55c0,.21-.41.31-1.12.41a70.37,70.37,0,0,1-9.59.76,3.06,3.06,0,0,1-1.68-.3,61.37,61.37,0,0,1-7.51-9.09c-.56-.71-1.27-1.52-2.18-2.54a.05.05,0,0,1-.06,0h-.15a18.76,18.76,0,0,1-1.88,3.61,16.87,16.87,0,0,1-5.12,5.12,25.33,25.33,0,0,1-5,2.08,23.71,23.71,0,0,1-5.38.56c-.3,0-.41-.1-.41-.2a32,32,0,0,0,4.32-2,18.75,18.75,0,0,0,5.13-3.86,15,15,0,0,0,3.65-4.87,81.83,81.83,0,0,0-9,1.32,6.36,6.36,0,0,1-2.14.35,4,4,0,0,1-2.74-1.62A5.33,5.33,0,0,1,209,42.51c0-.1.11-.21.41-.21,2.49,0,7.72-.4,15.69-1.27a15.25,15.25,0,0,0,.15-2.13,6.32,6.32,0,0,0-.1-1.17c-1.32.16-2.69.36-4.11.56a9.57,9.57,0,0,1-1.53.21,3.23,3.23,0,0,1-2.13-1.17,2.52,2.52,0,0,1-1.07-1.58c0-.25.11-.4.41-.4,3.71-.41,7-.76,9.75-1.17V32.1a8.07,8.07,0,0,1-1,0c-2.08,0-3.4-.51-4-1.62a3.32,3.32,0,0,1-.76-1.53c0-.25.1-.4.41-.4,2-.1,3.8-.21,5.33-.41a15.2,15.2,0,0,0-.16-1.67,4,4,0,0,1-.2-.51,28.53,28.53,0,0,1-3.2.2c-2.08,0-3.4-.51-4-1.62a3.17,3.17,0,0,1-.71-1.53c0-.25.1-.4.36-.4a90.91,90.91,0,0,0,11.52-1,53.69,53.69,0,0,0,5.79-1.32,3,3,0,0,1,1.17-.25A5,5,0,0,1,238.54,20.53Zm-16.8-5.94a10.48,10.48,0,0,1,3.55,1.52,3.12,3.12,0,0,1,1,2.38,2.17,2.17,0,0,1-.86,1.53,3.45,3.45,0,0,1-1.93.66c-.3,0-.61-.21-.91-.66a21.81,21.81,0,0,1-2.64-4.77,1,1,0,0,1-.2-.51.37.37,0,0,1,.4-.41A6.74,6.74,0,0,1,221.74,14.59Zm16-2.19c1.67.92,2.54,1.63,2.54,2.13,0,.26-.26.46-.76.66a7.63,7.63,0,0,0-1.93,1.17A32.93,32.93,0,0,1,231,20.68c-.11,0-.16-.05-.16-.21.46-.81.82-1.57,1.12-2.18a18.24,18.24,0,0,0,1.27-3.2,5.42,5.42,0,0,0,.35-1.37,3.14,3.14,0,0,0-.1-.51,1.87,1.87,0,0,1-.1-.66.89.89,0,0,1,1-1A12.79,12.79,0,0,1,237.78,12.4Z"/><path d="M269.66,33.37a6.29,6.29,0,0,1-.61,2.08c-2.38,6-3.85,9.85-4.41,11.47a28.76,28.76,0,0,0-.81,3.1c-.46,1.73-1,2.59-1.48,2.59s-1.16-.76-1.88-2.39a14.34,14.34,0,0,1-1.11-4.16,1,1,0,0,1,.61-1,9.17,9.17,0,0,0,2.43-2,110.31,110.31,0,0,0,6.86-9.84c0-.11.1-.16.2-.21A.54.54,0,0,1,269.66,33.37Zm-7.61-7.72a17,17,0,0,1,4,1.22,2.19,2.19,0,0,1,1.06,1.93,2.13,2.13,0,0,1-.86,1.52,3.23,3.23,0,0,1-1.88.66,1.33,1.33,0,0,1-1.11-.56,15.91,15.91,0,0,1-3.2-4.11.74.74,0,0,1-.26-.51.37.37,0,0,1,.41-.35A16.16,16.16,0,0,1,262.05,25.65Zm3.45-10.71a15.09,15.09,0,0,1,3.71,1.22,2.19,2.19,0,0,1,1.06,1.93,2.15,2.15,0,0,1-.86,1.52,3.37,3.37,0,0,1-1.93.66,1.25,1.25,0,0,1-1-.56,17.53,17.53,0,0,1-2.89-4.11.67.67,0,0,1-.25-.46c.05-.25.2-.4.4-.4A13.79,13.79,0,0,1,265.5,14.94Zm28.07,14.27a2.32,2.32,0,0,1,1.07,2c0,.81-.2,1.16-.56,1.16a62.69,62.69,0,0,0-9.54.71,31.77,31.77,0,0,0-4.32.87,3.79,3.79,0,0,1-1,.25,1.34,1.34,0,0,1-.61-.15,1.14,1.14,0,0,0-.15.46c-.71,2.13-1.32,4-1.93,5.53,2.79-.41,5.28-.86,7.46-1.27,2.59-.46,5.23-1.07,7.92-1.78a7.63,7.63,0,0,1,1.78-.25,4.42,4.42,0,0,1,2.28.81,2.34,2.34,0,0,1,1.07,2c0,.81-.21,1.17-.56,1.17a76.2,76.2,0,0,0-11.12.76,4.85,4.85,0,0,0,.51.51A31,31,0,0,0,289,44.89a5.24,5.24,0,0,0,.76-1,9.82,9.82,0,0,0,1.11-2.19c0-.5.1-.81.21-.81A5.2,5.2,0,0,1,293.17,42c1.11,1,1.67,1.62,1.67,1.93q0,.23-.45.3c-1,.41-2.54.87-4.47,1.47a13.72,13.72,0,0,0,2.23,1.68c2.13,1.57,5.69,3.25,10.66,5.08V53c0,.15-.35.25-1,.3a62.92,62.92,0,0,1-8.12.66,2.46,2.46,0,0,1-1.53-.3A54.86,54.86,0,0,1,285.3,45c-.51-.71-1.22-1.47-2-2.38a8.47,8.47,0,0,0-.76-.71l-2.24.45c.87.41,1.32.87,1.32,1.32a4.42,4.42,0,0,1-.15.72,47.89,47.89,0,0,0-.61,6.19c1.78-.76,3.35-1.42,4.72-1.93a5.54,5.54,0,0,1,1-.2c.1,0,.2.2.2.55a2.62,2.62,0,0,1-.41,1,60.87,60.87,0,0,0-7.71,6.45.64.64,0,0,1-.41.3,2.54,2.54,0,0,1-2.08-1.17,13.8,13.8,0,0,1-.86-1.42v-1a4.57,4.57,0,0,0,1.32-2.13,49.69,49.69,0,0,0,.25-6.81,2.88,2.88,0,0,0-.51-1.62,1.93,1.93,0,0,1-.66-.46c-.5,1.22-1,2.19-1.37,3a27.39,27.39,0,0,1-4.67,6.65,13.5,13.5,0,0,1-5.07,3.35c1.57-2.08,2.53-3.35,2.94-4a63.74,63.74,0,0,0,3.15-5.79,64.77,64.77,0,0,0,2.79-9.19,10.9,10.9,0,0,0,.41-2.89,3.6,3.6,0,0,0-.36-1.57,2.6,2.6,0,0,1-.2-.82c0-.25.15-.4.56-.4a12,12,0,0,1,3.35.66h.05c2.43-.36,4.62-.76,6.5-1.17a57.43,57.43,0,0,0,6.14-1.47,7.51,7.51,0,0,1,1.42-.21A4.44,4.44,0,0,1,293.57,29.21ZM274.38,17.68h.06c1.32-.1,2.84-.3,4.56-.51-.15-.71-.25-1.26-.35-1.57a7.08,7.08,0,0,0-.76-1.27,1.31,1.31,0,0,1-.46-.81c0-.36.25-.56.76-.56a6.54,6.54,0,0,1,2.64.56c1.27.41,1.93.81,1.93,1.22v.66a4.51,4.51,0,0,0-.15,1.32l2.28-.31c0-.71.05-1.27.05-1.67a11.49,11.49,0,0,0-.45-2.9,2,2,0,0,1-.16-.71c0-.2.26-.35.82-.35a8.23,8.23,0,0,1,3,.56c1.53.55,2.29,1.11,2.29,1.62l-.31.41a4.75,4.75,0,0,0-.4,1.57,2.38,2.38,0,0,0-.16.71c1-.2,1.88-.4,2.75-.61a5.51,5.51,0,0,1,.91-.1A7.29,7.29,0,0,1,296,16c1.78,1,2.69,1.77,2.69,2.28a2.66,2.66,0,0,1-.71,1.58c-.81.86-2.13,3.24-3.86,7.15a3.53,3.53,0,0,1-2.59,1.17c-.81,0-1.27-.25-1.47-.76a53.47,53.47,0,0,0-7.06.81,36.22,36.22,0,0,1-4.77.76,1.09,1.09,0,0,1-1,.61,1.88,1.88,0,0,1-1.58-.91,2.42,2.42,0,0,1-.61-1.27A12.53,12.53,0,0,1,273.93,23a13.42,13.42,0,0,0-1.07-3,3.25,3.25,0,0,0-1.22-1.48c0-.66.21-1,.61-1A18.78,18.78,0,0,1,274.38,17.68Zm5.54,8.73c-.1-.86-.15-1.67-.21-2.43a2.3,2.3,0,0,1-1.16-.56,1.57,1.57,0,0,1-.56-1.17c0-.2.1-.3.41-.4a4,4,0,0,0,1.11-.16c-.1-.81-.2-1.57-.25-2.23-.66.1-1.32.25-2,.35l1.17,6.76A7.88,7.88,0,0,0,279.92,26.41Zm11.17,9.34c0,.26-.21.41-.51.46-2.13.46-4.06.81-5.89,1-1.52.2-2.54.3-2.94.3a3,3,0,0,1-1.88-.61,1.54,1.54,0,0,1-.66-1.17.55.55,0,0,1,.4-.6,49,49,0,0,0,7.31-1.63,4.62,4.62,0,0,1,1-.15C290,33.37,291.09,34.18,291.09,35.75Zm-6.3-17.1-2.18.3c0,.71.05,1.42.1,2.23a19.76,19.76,0,0,0,2-.4C284.69,20,284.74,19.31,284.79,18.65Zm-.4,7q.08-1.14.15-2.13c-.51.1-.92.15-1.32.2a1,1,0,0,1-.36.05c.05.66.1,1.37.21,2.09A13,13,0,0,0,284.39,25.65Zm4.62-1a4,4,0,0,1,1.11-.21,1.62,1.62,0,0,1,.61.11c.25-.92.51-2,.76-3.25a8.87,8.87,0,0,0,.41-2.39.75.75,0,0,0-.81-.81c-.46,0-1.12.05-2,.1-.16.76-.26,1.52-.36,2.23v.11a1.69,1.69,0,0,1,1.22,1.72c0,.25-.2.41-.56.46a10.66,10.66,0,0,1-1.12.2c-.1.71-.25,1.42-.4,2Z"/><path class="cls-33" d="M238.54,20.53c.91.65,1.37,1.21,1.37,1.72a3.79,3.79,0,0,1-.2,1.17,1.35,1.35,0,0,1-.76.81c-2.64.51-5.28.86-8,1.17.5.3.81.61.81.81a2.2,2.2,0,0,0-.1.56.86.86,0,0,0-.16.51c.82-.21,1.53-.46,2.19-.66a2.42,2.42,0,0,1,.86-.21,6,6,0,0,1,1.63.46c.86.66,1.31,1.22,1.31,1.73a3.72,3.72,0,0,1-.2,1.16,1.35,1.35,0,0,1-.76.82c-1.93.4-3.81.71-5.74,1-.1.61-.15,1.27-.2,2,1.83-.3,3.66-.61,5.53-1a13.37,13.37,0,0,1,2-.21,4.87,4.87,0,0,1,2.54.87,2.51,2.51,0,0,1,1.22,2.13c0,1.06-.25,1.57-.76,1.57q-5.41,0-10,.31a2.2,2.2,0,0,1,.1.5,1.76,1.76,0,0,1-.31.82,7.12,7.12,0,0,0-.91,2c5.53-.61,9.95-1.17,13.3-1.73a7.23,7.23,0,0,1,.81-.1,7.66,7.66,0,0,1,3.56,1.17,4.15,4.15,0,0,1,1.83,3c0,1.22-.51,1.83-1.43,1.83a32,32,0,0,1-4.41-.41,18.38,18.38,0,0,0-3.3-.4c-2.85,0-5.43,0-7.72.1a39.71,39.71,0,0,0,6.45,5.08c2.38,1.62,6.39,3.4,12,5.33V55c0,.21-.41.31-1.12.41a70.37,70.37,0,0,1-9.59.76,3.06,3.06,0,0,1-1.68-.3,61.37,61.37,0,0,1-7.51-9.09c-.56-.71-1.27-1.52-2.18-2.54a.05.05,0,0,1-.06,0h-.15a18.76,18.76,0,0,1-1.88,3.61,16.87,16.87,0,0,1-5.12,5.12,25.33,25.33,0,0,1-5,2.08,23.71,23.71,0,0,1-5.38.56c-.3,0-.41-.1-.41-.2a32,32,0,0,0,4.32-2,18.75,18.75,0,0,0,5.13-3.86,15,15,0,0,0,3.65-4.87,81.83,81.83,0,0,0-9,1.32,6.36,6.36,0,0,1-2.14.35,4,4,0,0,1-2.74-1.62A5.33,5.33,0,0,1,209,42.51c0-.1.11-.21.41-.21,2.49,0,7.72-.4,15.69-1.27a15.25,15.25,0,0,0,.15-2.13,6.32,6.32,0,0,0-.1-1.17c-1.32.16-2.69.36-4.11.56a9.57,9.57,0,0,1-1.53.21,3.23,3.23,0,0,1-2.13-1.17,2.52,2.52,0,0,1-1.07-1.58c0-.25.11-.4.41-.4,3.71-.41,7-.76,9.75-1.17V32.1a8.07,8.07,0,0,1-1,0c-2.08,0-3.4-.51-4-1.62a3.32,3.32,0,0,1-.76-1.53c0-.25.1-.4.41-.4,2-.1,3.8-.21,5.33-.41a15.2,15.2,0,0,0-.16-1.67,4,4,0,0,1-.2-.51,28.53,28.53,0,0,1-3.2.2c-2.08,0-3.4-.51-4-1.62a3.17,3.17,0,0,1-.71-1.53c0-.25.1-.4.36-.4a90.91,90.91,0,0,0,11.52-1,53.69,53.69,0,0,0,5.79-1.32,3,3,0,0,1,1.17-.25A5,5,0,0,1,238.54,20.53Zm-16.8-5.94a10.48,10.48,0,0,1,3.55,1.52,3.12,3.12,0,0,1,1,2.38,2.17,2.17,0,0,1-.86,1.53,3.45,3.45,0,0,1-1.93.66c-.3,0-.61-.21-.91-.66a21.81,21.81,0,0,1-2.64-4.77,1,1,0,0,1-.2-.51.37.37,0,0,1,.4-.41A6.74,6.74,0,0,1,221.74,14.59Zm16-2.19c1.67.92,2.54,1.63,2.54,2.13,0,.26-.26.46-.76.66a7.63,7.63,0,0,0-1.93,1.17A32.93,32.93,0,0,1,231,20.68c-.11,0-.16-.05-.16-.21.46-.81.82-1.57,1.12-2.18a18.24,18.24,0,0,0,1.27-3.2,5.42,5.42,0,0,0,.35-1.37,3.14,3.14,0,0,0-.1-.51,1.87,1.87,0,0,1-.1-.66.89.89,0,0,1,1-1A12.79,12.79,0,0,1,237.78,12.4Z"/><path class="cls-33" d="M269.66,33.37a6.29,6.29,0,0,1-.61,2.08c-2.38,6-3.85,9.85-4.41,11.47a28.76,28.76,0,0,0-.81,3.1c-.46,1.73-1,2.59-1.48,2.59s-1.16-.76-1.88-2.39a14.34,14.34,0,0,1-1.11-4.16,1,1,0,0,1,.61-1,9.17,9.17,0,0,0,2.43-2,110.31,110.31,0,0,0,6.86-9.84c0-.11.1-.16.2-.21A.54.54,0,0,1,269.66,33.37Zm-7.61-7.72a17,17,0,0,1,4,1.22,2.19,2.19,0,0,1,1.06,1.93,2.13,2.13,0,0,1-.86,1.52,3.23,3.23,0,0,1-1.88.66,1.33,1.33,0,0,1-1.11-.56,15.91,15.91,0,0,1-3.2-4.11.74.74,0,0,1-.26-.51.37.37,0,0,1,.41-.35A16.16,16.16,0,0,1,262.05,25.65Zm3.45-10.71a15.09,15.09,0,0,1,3.71,1.22,2.19,2.19,0,0,1,1.06,1.93,2.15,2.15,0,0,1-.86,1.52,3.37,3.37,0,0,1-1.93.66,1.25,1.25,0,0,1-1-.56,17.53,17.53,0,0,1-2.89-4.11.67.67,0,0,1-.25-.46c.05-.25.2-.4.4-.4A13.79,13.79,0,0,1,265.5,14.94Zm28.07,14.27a2.32,2.32,0,0,1,1.07,2c0,.81-.2,1.16-.56,1.16a62.69,62.69,0,0,0-9.54.71,31.77,31.77,0,0,0-4.32.87,3.79,3.79,0,0,1-1,.25,1.34,1.34,0,0,1-.61-.15,1.14,1.14,0,0,0-.15.46c-.71,2.13-1.32,4-1.93,5.53,2.79-.41,5.28-.86,7.46-1.27,2.59-.46,5.23-1.07,7.92-1.78a7.63,7.63,0,0,1,1.78-.25,4.42,4.42,0,0,1,2.28.81,2.34,2.34,0,0,1,1.07,2c0,.81-.21,1.17-.56,1.17a76.2,76.2,0,0,0-11.12.76,4.85,4.85,0,0,0,.51.51A31,31,0,0,0,289,44.89a5.24,5.24,0,0,0,.76-1,9.82,9.82,0,0,0,1.11-2.19c0-.5.1-.81.21-.81A5.2,5.2,0,0,1,293.17,42c1.11,1,1.67,1.62,1.67,1.93q0,.23-.45.3c-1,.41-2.54.87-4.47,1.47a13.72,13.72,0,0,0,2.23,1.68c2.13,1.57,5.69,3.25,10.66,5.08V53c0,.15-.35.25-1,.3a62.92,62.92,0,0,1-8.12.66,2.46,2.46,0,0,1-1.53-.3A54.86,54.86,0,0,1,285.3,45c-.51-.71-1.22-1.47-2-2.38a8.47,8.47,0,0,0-.76-.71l-2.24.45c.87.41,1.32.87,1.32,1.32a4.42,4.42,0,0,1-.15.72,47.89,47.89,0,0,0-.61,6.19c1.78-.76,3.35-1.42,4.72-1.93a5.54,5.54,0,0,1,1-.2c.1,0,.2.2.2.55a2.62,2.62,0,0,1-.41,1,60.87,60.87,0,0,0-7.71,6.45.64.64,0,0,1-.41.3,2.54,2.54,0,0,1-2.08-1.17,13.8,13.8,0,0,1-.86-1.42v-1a4.57,4.57,0,0,0,1.32-2.13,49.69,49.69,0,0,0,.25-6.81,2.88,2.88,0,0,0-.51-1.62,1.93,1.93,0,0,1-.66-.46c-.5,1.22-1,2.19-1.37,3a27.39,27.39,0,0,1-4.67,6.65,13.5,13.5,0,0,1-5.07,3.35c1.57-2.08,2.53-3.35,2.94-4a63.74,63.74,0,0,0,3.15-5.79,64.77,64.77,0,0,0,2.79-9.19,10.9,10.9,0,0,0,.41-2.89,3.6,3.6,0,0,0-.36-1.57,2.6,2.6,0,0,1-.2-.82c0-.25.15-.4.56-.4a12,12,0,0,1,3.35.66h.05c2.43-.36,4.62-.76,6.5-1.17a57.43,57.43,0,0,0,6.14-1.47,7.51,7.51,0,0,1,1.42-.21A4.44,4.44,0,0,1,293.57,29.21ZM274.38,17.68h.06c1.32-.1,2.84-.3,4.56-.51-.15-.71-.25-1.26-.35-1.57a7.08,7.08,0,0,0-.76-1.27,1.31,1.31,0,0,1-.46-.81c0-.36.25-.56.76-.56a6.54,6.54,0,0,1,2.64.56c1.27.41,1.93.81,1.93,1.22v.66a4.51,4.51,0,0,0-.15,1.32l2.28-.31c0-.71.05-1.27.05-1.67a11.49,11.49,0,0,0-.45-2.9,2,2,0,0,1-.16-.71c0-.2.26-.35.82-.35a8.23,8.23,0,0,1,3,.56c1.53.55,2.29,1.11,2.29,1.62l-.31.41a4.75,4.75,0,0,0-.4,1.57,2.38,2.38,0,0,0-.16.71c1-.2,1.88-.4,2.75-.61a5.51,5.51,0,0,1,.91-.1A7.29,7.29,0,0,1,296,16c1.78,1,2.69,1.77,2.69,2.28a2.66,2.66,0,0,1-.71,1.58c-.81.86-2.13,3.24-3.86,7.15a3.53,3.53,0,0,1-2.59,1.17c-.81,0-1.27-.25-1.47-.76a53.47,53.47,0,0,0-7.06.81,36.22,36.22,0,0,1-4.77.76,1.09,1.09,0,0,1-1,.61,1.88,1.88,0,0,1-1.58-.91,2.42,2.42,0,0,1-.61-1.27A12.53,12.53,0,0,1,273.93,23a13.42,13.42,0,0,0-1.07-3,3.25,3.25,0,0,0-1.22-1.48c0-.66.21-1,.61-1A18.78,18.78,0,0,1,274.38,17.68Zm5.54,8.73c-.1-.86-.15-1.67-.21-2.43a2.3,2.3,0,0,1-1.16-.56,1.57,1.57,0,0,1-.56-1.17c0-.2.1-.3.41-.4a4,4,0,0,0,1.11-.16c-.1-.81-.2-1.57-.25-2.23-.66.1-1.32.25-2,.35l1.17,6.76A7.88,7.88,0,0,0,279.92,26.41Zm11.17,9.34c0,.26-.21.41-.51.46-2.13.46-4.06.81-5.89,1-1.52.2-2.54.3-2.94.3a3,3,0,0,1-1.88-.61,1.54,1.54,0,0,1-.66-1.17.55.55,0,0,1,.4-.6,49,49,0,0,0,7.31-1.63,4.62,4.62,0,0,1,1-.15C290,33.37,291.09,34.18,291.09,35.75Zm-6.3-17.1-2.18.3c0,.71.05,1.42.1,2.23a19.76,19.76,0,0,0,2-.4C284.69,20,284.74,19.31,284.79,18.65Zm-.4,7q.08-1.14.15-2.13c-.51.1-.92.15-1.32.2a1,1,0,0,1-.36.05c.05.66.1,1.37.21,2.09A13,13,0,0,0,284.39,25.65Zm4.62-1a4,4,0,0,1,1.11-.21,1.62,1.62,0,0,1,.61.11c.25-.92.51-2,.76-3.25a8.87,8.87,0,0,0,.41-2.39.75.75,0,0,0-.81-.81c-.46,0-1.12.05-2,.1-.16.76-.26,1.52-.36,2.23v.11a1.69,1.69,0,0,1,1.22,1.72c0,.25-.2.41-.56.46a10.66,10.66,0,0,1-1.12.2c-.1.71-.25,1.42-.4,2Z"/></svg>