<?xml version="1.0" encoding="utf-8"?>
<!-- Generator: Adobe Illustrator 24.0.3, SVG Export Plug-In . SVG Version: 6.00 Build 0)  -->
<svg version="1.1" id="圖層_1" xmlns="http://www.w3.org/2000/svg" xmlns:xlink="http://www.w3.org/1999/xlink" x="0px" y="0px"
	 viewBox="0 0 440 64" style="enable-background:new 0 0 440 64;" xml:space="preserve">
<style type="text/css">
	.st0{fill-rule:evenodd;clip-rule:evenodd;}
</style>
<path id="SystemName" class="st0" d="M426.85,18.92c0.69,0.44,3.01,1.48,3.01,2.18c0,0.54-0.99,0.74-1.38,0.79
	c-1.19,1.38-2.42,2.87-3.76,4.1l-3.07,2.82h1.53c3.11,0,6.28-0.05,9.39-0.15c-0.54-1.38-1.29-2.47-2.22-3.61
	c-0.15-0.1-0.35-0.35-0.35-0.49c0-0.15,0.2-0.2,0.3-0.2c1.14,0,4.05,2.08,5.04,2.77c1.28,0.94,2.08,2.13,2.08,3.76
	c0,1.23-0.74,2.62-2.17,2.62c-1.58,0-2.03-2.17-2.42-3.31c-2.82,0.49-5.68,0.94-8.5,1.38c-1.88,0.3-3.76,0.74-5.54,1.38l-1.68-4.4
	c0.59-0.15,1.19-0.4,1.73-0.74c2.22-1.43,4.74-6.43,5.59-8.9h-5.83l-0.69,0.74L416.03,17c0.79,0.1,1.73,0.25,2.52,0.25h15.42
	c0.3-0.35,1.73-2.18,2.27-2.18c0.64,0,2.22,1.98,2.52,2.37c0.25,0.2,0.69,0.69,0.69,1.04c0,0.3-0.4,0.44-0.64,0.44H426.85z
	 M427.84,16.6c-2.52,0-2.32-3.11-2.72-4.89c-0.25-1.09-0.84-1.63-1.58-2.47c-0.05-0.05-0.25-0.25-0.25-0.35c0-0.2,0.3-0.3,0.44-0.3
	c0.3,0,1.83,0.64,2.18,0.74c1.83,0.69,4.05,2.42,4.05,4.6C429.97,15.22,429.27,16.6,427.84,16.6z M405.15,22.53h1.19
	c1.38,0,2.77,0,4.15-0.1c0.64-0.99,1.24-1.98,1.73-3.07c0.25-0.59,0.74-1.33,0.79-2.03c0.05-0.1,0.05-0.4,0.2-0.4
	c0.74,0,4.3,2.67,4.5,3.01c0.1,0.2,0.1,0.3,0.1,0.49c0,0.3-1.48,0.54-1.68,0.54c-1.78,2.18-3.41,4.45-5.19,6.57
	c-1.43,1.63-2.92,3.21-4.35,4.79c2.27,0,4.55-0.15,6.82-0.3c-0.2-0.99-0.49-1.98-1.04-2.82c-0.15-0.2-0.64-0.84-0.64-1.04
	c0.1-0.2,0.2-0.2,0.3-0.2c0.94,0,3.46,2.08,4.1,2.82c0.4,0.44,0.74,0.89,0.99,1.43c0.3,0.49,0.44,1.09,0.44,1.68
	c0,1.09-0.59,2.22-1.88,2.22c-1.73,0-1.78-1.58-2.08-2.92c-3.11,1.19-6.18,2.37-9.1,3.91l-1.93-4.89c0.69-0.3,1.38-0.69,1.98-1.14
	c1.09-0.84,4.4-5.93,5.19-7.17c-2.32,0.59-4.35,1.43-6.48,2.47l-1.48-4.05c0.44-0.3,0.89-0.54,1.33-0.89
	c0.69-0.49,1.19-1.29,1.58-2.03c0.84-1.58,2.37-4.74,2.92-6.38l0.89-2.77c0.1-0.35,0.4-1.98,0.44-2.03c0.3-0.1,1.24,0.44,1.48,0.54
	c0.69,0.35,3.76,1.88,3.76,2.47c0,0.4-1.19,0.69-1.43,0.74C410.34,15.66,407.87,19.17,405.15,22.53z M403.57,39.83
	c0-0.1,0.1-0.15,0.2-0.15c0.15,0,0.25,0.15,0.3,0.2c1.19,1.33,1.83,4.65,1.83,6.38c0,0.99-0.2,1.83-0.64,2.72
	c-0.4,0.84-1.14,1.09-2.03,1.09c-1.38,0-1.83-0.49-1.83-1.83c0-1.53,1.19-3.11,1.73-4.5C403.62,42.55,403.57,41.12,403.57,39.83z
	 M382.66,27.03c0-0.15,0.1-0.25,0.25-0.25c0.25,0,1.53,0.59,1.83,0.74c0.64,0.25,1.29,0.49,1.93,0.74c1.19,0.49,2.32,1.33,3.36,2.03
	c1.83,1.29,3.9,3.26,3.9,5.73c0,1.38-0.94,2.47-2.37,2.47c-1.98,0-2.32-2.08-2.96-3.51c-0.15-0.4-0.4-0.79-0.59-1.19
	c-4.3,0.44-8.65,0.79-13,1.19c0.59,0.2,4.2,1.29,4.2,2.08c0,0.49-1.04,0.99-1.38,1.19v11.52c0,0.74-0.05,1.78-0.25,2.52
	c-0.69,2.27-4.2,2.72-6.18,2.77c-0.1-1.28-0.35-2.47-1.33-3.41c-0.59-0.54-2.57-1.14-2.57-1.48c0-0.2,0.2-0.25,0.35-0.25
	c1.33,0.1,2.72,0.35,4.1,0.35c0.84,0,1.63-0.2,1.63-1.19v-8.45c0-1.88-0.1-3.81-0.44-5.63c-4.4,0.4-8.75,0.69-13.1,1.58l-1.48-4.65
	c6.92-0.94,11.57-4.15,17.4-7.66c-3.86,0.4-8.9,0.84-12.61,1.88l-1.53-4.25c4.89-0.54,7.86-3.26,10.97-6.87l-2.03,0.05
	c-3.61,0.1-7.17-0.05-10.73-0.2c-0.25,0-1.58,0.05-1.58-0.3c0-0.3,0.3-0.35,0.49-0.35c1.58-0.25,3.21-0.4,4.84-0.54
	c3.71-0.4,7.41-1.04,11.07-1.68c1.93-0.35,3.81-0.64,5.73-1.04c1.14-0.2,2.37-0.4,3.46-0.84c0.99-0.4,2.22-0.69,3.02-1.43
	c0.15,0,0.44,0.15,0.54,0.3c0.44,0.64,3.02,4,3.02,4.7c0,0.4-0.3,0.4-0.64,0.4c-0.69,0-1.43-0.25-2.08-0.25
	c-0.54,0-1.14,0.1-1.68,0.15l-3.85,0.4c-2.03,0.2-4.05,0.35-6.08,0.49c0.59,0.3,2.52,0.89,2.52,1.53c0,0.69-1.24,0.69-1.78,0.84
	c0,0.05-1.73,1.19-1.98,1.33c-1.38,0.94-2.82,1.93-4.3,2.72l-2.57,1.38l10.38-0.3c1.78-1.43,4.1-3.16,5.39-5.09
	c0.54,0,3.56,2.47,3.76,2.62c0.35,0.3,0.99,0.79,0.99,1.24c0,0.64-1.43,0.74-1.88,0.79c-3.56,1.93-7.12,3.9-10.73,5.78
	c-3.07,1.58-6.18,3.02-9.29,4.4l20.22-0.1c-1.33-1.98-2.42-3.16-4.2-4.74C382.7,27.23,382.66,27.13,382.66,27.03z M362.24,43.34
	c0.59-1.24,1.09-2.47,1.58-3.76c0.15-0.34,0.15-1.63,0.49-1.63c0.79,0,5.19,2.37,5.19,3.01c0,0.35-1.48,0.79-1.73,0.84
	c-2.18,3.11-5.39,6.72-8.25,9.24c-0.25,0.2-1.38,1.33-1.73,1.38c-0.15-0.15-0.15-0.2-0.15-0.3c0-0.35,0.59-1.19,0.79-1.48
	C359.82,48.28,361.1,45.81,362.24,43.34z M349.08,16.4h-11.17l0.2,2.47c-1.48,0.35-2.97,0.54-4.45,0.79c0.1-1.09,0.2-2.22,0.15-3.26
	h-6.38l0.15,3.11c-1.43,0.4-2.92,0.64-4.35,0.94c0.05-1.33,0.25-2.72,0.15-4.05h-8.01l-0.74,0.74l-1.48-2.72
	c0.89,0.05,1.83,0.2,2.72,0.2h7.51V12c0-0.84,0.05-1.78-0.25-2.57c-0.05-0.3-0.44-0.89-0.44-1.09c0-0.15,0.3-0.25,0.44-0.25
	c1.29,0,3.36,0.64,4.65,1.04c0.35,0.05,0.94,0.25,0.94,0.64c0,0.4-1.04,0.99-1.29,1.19v3.66h6.52v-2.47c0-0.74-0.05-1.53-0.15-2.27
	c-0.1-0.3-0.44-0.99-0.44-1.14c0-0.2,0.3-0.3,0.49-0.3c0.25,0,2.08,0.49,2.42,0.59c0.59,0.15,3.02,0.74,3.02,1.48
	c0,0.4-0.99,0.89-1.29,1.04v3.07h6.38c0.25-0.3,1.73-2.13,2.42-2.13c0.54,0,2.37,1.78,2.57,1.98c0.3,0.25,0.89,0.84,0.89,1.29
	C350.27,16.35,349.48,16.4,349.08,16.4z M343.25,24.86c-1.63,0-1.93-1.78-2.18-2.97c-0.2-0.84-0.54-1.48-1.19-1.98
	c-0.15-0.15-0.79-0.54-0.79-0.79c0-0.15,0.25-0.25,0.35-0.25c0.64,0,1.43,0.3,2.03,0.44c1.73,0.4,3.76,1.43,3.76,3.46
	C345.23,23.82,344.29,24.86,343.25,24.86z M316.31,40.18h-1.38l-0.59,0.64l-1.19-2.57c0.74,0.05,1.53,0.2,2.32,0.2h6.03v-3.81h-2.47
	c-0.2,0.25-1.04,1.58-1.48,1.58c-0.39,0-3.46-2.67-3.46-2.92c0-0.35,1.24-1.14,1.48-1.33v-4.99c0-0.49-0.05-0.99-0.15-1.48
	c-0.05-0.4-0.1-0.84-0.3-1.19c-0.05-0.15-0.1-0.3-0.1-0.4c0-0.2,0.05-0.3,0.25-0.3c0.74,0,3.61,1.04,4.35,1.28
	c0.15,0.1,0.44,0.25,0.44,0.49c0,0.3-0.89,1.09-1.14,1.29v6.18h2.57l-0.05-7.27c0-0.4,0-0.89-0.1-1.28
	c-0.1-0.25-0.35-0.69-0.35-0.94c0-0.2,0.05-0.4,0.3-0.4c0.49,0,4.3,2.03,4.99,2.37h9.49l-0.3-2.67c-0.05-0.59-0.49-1.73-0.49-2.08
	c0-0.25,0.4-0.3,0.59-0.3c0.3,0,4.1,1.09,4.45,1.24c0.25,0.1,0.49,0.2,0.49,0.49c0,0.25-0.84,0.99-1.04,1.19l-0.15,2.12h5.09
	c0.35-0.35,1.38-1.78,2.03-1.78c0.54,0,2.37,1.93,2.82,2.32c0.2,0.15,0.25,0.35,0.25,0.59c0,0.4-0.2,0.64-0.64,0.64h-9.39
	c0.2,4.79,0.69,8.4,1.73,13.15c0.94-2.47,2.27-5.78,2.37-8.4c0.1-0.05,0.15-0.05,0.25-0.05c0.25,0,4.79,1.73,4.79,2.47
	c0,0.4-1.24,1.04-1.53,1.19c-1.28,3.07-2.57,5.93-4.15,8.85c0.49,0.74,2.72,4.2,3.61,4.2c0.49,0,2.08-4.84,2.42-4.84
	c0.1,0,0.3,0.25,0.3,0.35c0,0.25-0.2,0.89-0.25,1.14c-0.35,1.43-0.74,2.82-0.74,4.3c0,2.22,1.53,3.16,1.53,4.1
	c0,0.84-0.64,1.09-1.33,1.09c-3.11,0-6.03-4.4-7.56-6.67c-0.89,1.14-1.88,2.32-2.97,3.26c-0.79,0.64-4.84,3.71-5.59,3.71
	c-0.2-0.4,0.59-1.09,0.74-1.23c2.52-2.52,4.65-5.49,6.08-8.75c-1.24-3.02-1.63-4.8-2.18-8.06l-0.59,0.44v3.31
	c0,0.69,0.15,1.48,0.2,2.18c-1.04,0.4-2.13,0.79-3.21,0.99l0.1-1.68h-0.25l-0.4,0.54v3.41h1.19c0.15-0.15,1.09-1.24,1.33-1.24
	c0.44,0,2.32,1.98,2.32,2.27c0,0.44-0.4,0.64-0.74,0.64h-7.91c-0.15,0.3-0.64,1.33-1.04,1.33c-0.59,0-3.02-2.27-3.02-2.32
	c0-0.3,0.89-0.89,1.09-1.04V33.46c0-0.64,0-1.33-0.1-2.03c-0.05-0.49-0.1-1.19-0.3-1.68c-0.05-0.15-0.15-0.3-0.15-0.49
	c0-0.15,0.2-0.3,0.35-0.3c0.69,0,3.31,1.24,3.91,1.48h3.26c0.2-0.2,0.94-1.04,1.33-1.04c0.44,0,1.73,1.68,1.73,2.22
	c0,0.3-0.2,0.44-0.49,0.44h-2.27l-0.4,0.4v3.31h0.59c0.3-0.3,0.69-0.84,1.14-0.84c0.54,0,1.78,1.04,2.18,1.33
	c-0.4-3.02-0.74-6.03-0.94-9.05h-10.58l-0.25,0.3c-0.05,4.99,0.1,9.94-0.35,14.93c-0.15,1.98-0.69,3.95-1.43,5.83
	c-1.09,2.72-4.2,4.89-6.57,6.38c-0.2,0.1-0.84,0.54-1.04,0.54c-0.15,0-0.25-0.1-0.25-0.25c0-0.1,0.05-0.2,0.15-0.3
	c0.74-0.74,1.43-1.53,2.12-2.32c2.87-3.51,3.46-7.81,3.76-12.16h-1.98c0.25,0.2,0.94,0.64,0.94,0.99c0,0.4-0.54,0.64-0.79,0.79
	c-0.99,4.35-1.63,6.23-5.49,8.75c-0.2,0.1-0.94,0.64-1.14,0.64c-0.15,0-0.25-0.15-0.25-0.25c0-0.3,0.54-0.94,0.74-1.19
	C316.07,46.36,316.02,44.38,316.31,40.18z M329.17,46.11h1.73v-3.95h-1.73V46.11z M330.9,32.07h-1.43l-0.3,0.25v3.46h1.73V32.07z
	 M333.51,37.41h-4.35v3.11h4.35V37.41z M270.14,40.92l-0.89,0.59l-1.73-2.62c2.08,0.3,4.3,0.4,6.43,0.3V21.2
	c0-0.99,0-2.37-0.35-3.31c-0.1-0.25-0.25-0.54-0.25-0.79c0-0.2,0.1-0.44,0.35-0.44c0.69,0,4.5,1.83,5.24,2.22h2.47v-6.13
	c0-0.54-0.05-1.38-0.2-1.93c-0.1-0.3-0.54-1.33-0.54-1.48c0-0.25,0.3-0.3,0.49-0.3c0.74,0,5.19,0.69,5.19,1.98
	c0,0.4-1.04,0.89-1.33,1.04v6.82h3.11v-6.43c0-0.54,0-1.38-0.15-1.93c-0.1-0.3-0.54-1.33-0.54-1.48c0-0.25,0.3-0.3,0.49-0.3
	c0.54,0,4.6,0.79,4.99,1.23c0.2,0.2,0.4,0.49,0.4,0.79c0,0.4-1.09,0.94-1.38,1.04v7.07h3.02c0.15-0.2,1.43-1.93,1.93-1.93
	c0.64,0,2.97,1.93,3.26,2.17c0.25,0.15,0.79,0.54,0.79,0.89c0,0.4-1.09,1.24-1.33,1.48v17.69h0.35c0.15-0.2,1.78-2.37,2.37-2.37
	c0.3,0,0.74,0.49,0.94,0.69c0.25,0.25,2.37,2.37,2.37,2.97c0,0.3-0.4,0.44-0.64,0.44H270.14z M281.41,20.6h-2.92L277.9,21v7.86h3.51
	V20.6z M281.41,30.69h-3.51v8.5h3.51V30.69z M288.13,20.6h-3.11v8.25h3.16L288.13,20.6z M288.18,30.69h-3.16v8.55h3.16V30.69z
	 M295.5,20.6h-3.56l-0.05,8.25h3.66L295.5,20.6z M295.55,30.69h-3.66v8.55h3.66V30.69z M260.34,53.13h-22.19l-0.89,0.59l-1.73-2.62
	c1.04,0.1,2.17,0.3,3.26,0.3h8.85c0.84-4.05,1.53-8.06,2.18-12.11c0.64-3.76,1.28-7.86,1.28-11.71c0-0.35-0.1-0.69-0.1-0.99
	c0.05-0.2,0.15-0.25,0.2-0.25c0.25,0,0.44,0.1,0.64,0.15c0.74,0.25,5.44,1.43,5.44,2.18c0,0.54-1.04,0.84-1.43,1.09
	c-0.89,3.11-1.68,6.23-2.52,9.39c-1.09,4.1-2.42,8.15-3.76,12.26h5.98c0.3-0.35,1.83-2.42,2.42-2.42c0.64,0,2.47,2.13,2.82,2.52
	c0.25,0.25,0.64,0.64,0.64,1.04C261.43,53.03,260.74,53.13,260.34,53.13z M239.68,27.77c0-0.15,0.15-0.2,0.25-0.2
	c0.69,0,3.9,5.63,4.4,6.52c0.74,1.38,1.29,2.87,1.53,4.4c0.15,1.14,0.3,2.32,0.3,3.46c0,1.43-0.54,4.25-2.37,4.25
	c-1.83,0-2.17-1.83-2.17-3.31c0-1.73,0.15-3.46,0.15-5.24c0-2.97-0.59-5.93-1.63-8.7C240.08,28.76,239.68,27.92,239.68,27.77z
	 M259.9,24.36h-19.23l-0.89,0.59l-1.73-2.62c1.04,0.1,2.18,0.3,3.21,0.3h13.35c0.1-0.15,1.98-2.57,2.57-2.57
	c0.3,0,0.84,0.54,1.04,0.74l1.93,1.98c0.2,0.25,0.49,0.54,0.49,0.89C260.64,24.11,260.3,24.36,259.9,24.36z M248.73,20.11
	c-2.13,0-2.27-2.27-2.32-3.9c-0.05-1.29-0.1-2.67-0.44-3.95c-0.2-0.69-0.69-2.13-1.09-2.67c-0.15-0.2-0.54-0.69-0.54-0.94
	c0-0.1,0.15-0.15,0.25-0.15c0.2,0,1.09,0.64,1.24,0.79c1.83,1.19,3.36,2.42,4.4,4.45c0.44,0.89,0.94,1.93,0.94,3.02
	C251.15,18.23,250.51,20.11,248.73,20.11z M232.07,23.67c0.84,0.25,3.46,1.09,3.46,2.12c0,0.44-0.94,0.99-1.29,1.19v21.4
	c0,1.88,0.2,3.91,0.3,5.78c-1.48,0.59-3.07,0.84-4.65,1.04c0.15-2.12,0.35-4.35,0.35-6.43V26.58c-1.68,2.42-3.51,4.75-5.54,6.87
	c-0.15,0.15-0.54,0.64-0.74,0.64s-0.3-0.2-0.3-0.3c0-0.3,0.84-1.53,0.99-1.83c0.74-1.23,1.29-2.62,1.88-3.95
	c1.53-3.41,2.92-6.97,4-10.53c0.59-2.03,1.14-4.1,1.58-6.13c0.15-0.74,0.4-1.48,0.4-2.27c0-0.1,0-0.3,0.1-0.4
	c0.35,0,0.49,0.1,0.69,0.15c0.89,0.4,5.09,2.03,5.09,2.97c0,0.54-1.09,0.74-1.48,0.84C235.43,16.4,233.8,20.06,232.07,23.67z
	 M205.72,22.33c-0.69,2.62-1.43,5.09-2.37,7.71c0.59,3.06,1.63,5.83,2.92,8.65c1.04-2.77,3.61-12.51,3.61-14.93
	c0-0.25-0.05-0.44-0.05-0.69c0.15-0.1,0.25-0.1,0.4-0.1c0.84,0,4.84,1.98,4.84,2.62c0,0.44-0.94,0.89-1.29,1.04
	c-0.64,2.47-1.38,4.89-2.17,7.32c-0.54,1.63-1.09,3.31-1.73,4.84l-1.63,3.85c1.98,3.07,4.4,6.33,7.22,8.6l1.48,1.19
	c0.15,0.1,0.25,0.25,0.25,0.4c0,0.2-0.1,0.35-0.3,0.35l-1.68-0.05c-1.48-0.05-2.87,0.59-3.95,1.58c-2.67-2.77-3.71-4.99-5.24-8.5
	c-2.47,3.31-4.84,5.68-8.25,8.11c-0.3,0.2-1.73,1.33-2.03,1.33c-0.15,0-0.2-0.15-0.2-0.25c0-0.2,0.15-0.35,0.25-0.44
	c3.9-4.05,6.28-7.51,8.9-12.51c-0.49-1.63-0.99-3.31-1.38-4.94c-0.44-1.73-0.54-3.61-0.74-5.39c-0.44,0.79-2.47,5.29-2.97,5.29
	c-0.15,0-0.3-0.1-0.3-0.25s0.49-1.63,0.54-1.88c0.3-1.04,0.59-2.08,0.79-3.11c1.04-4.89,1.83-9.94,2.47-14.88
	c0.2-1.73,0.69-4.5,0.69-6.13c0-0.69-0.25-1.33-0.25-2.03c0-0.3,0.15-0.35,0.4-0.35c0.94,0,5.54,1.73,5.54,2.47
	c0,0.59-1.09,1.04-1.53,1.19c-0.49,2.72-1.04,5.44-1.73,8.16h6.13c0.2-0.3,1.68-2.22,2.08-2.22c0.49,0,3.31,3.02,3.31,3.51
	c0,0.3-0.35,0.44-0.59,0.44H205.72z M198.55,20.55v3.21c0,0.89,0.1,1.83,0.15,2.77c-1.14,0.4-2.37,0.69-3.56,0.84l0.1-1.68h-3.11
	v3.46h2.97c0.15-0.2,0.99-1.33,1.29-1.33c0.4,0,3.36,1.88,3.36,2.47c0,0.4-0.89,0.84-1.19,0.99v3.16c0,0.74,0.15,1.58,0.2,2.32
	c-1.14,0.44-2.32,0.69-3.56,0.89l0.1-1.33h-5.59c0.54,0.25,3.11,1.24,3.11,1.93c0,0.3-0.94,0.59-1.14,0.64
	c-0.49,0.59-1.04,1.19-1.53,1.73h3.95c0.2-0.2,1.33-1.68,1.73-1.68c0.49,0,2.32,1.48,2.57,1.68c0.35,0.25,0.84,0.64,0.84,1.14
	c0,0.44-0.89,0.64-1.23,0.79c-1.24,1.53-2.47,3.07-3.86,4.5c1.29,0.54,4.7,1.58,4.7,3.36c0,0.79-0.64,1.78-1.53,1.78
	c-1.48,0-4.4-2.47-5.49-3.02c-3.41,2.52-5.34,3.36-9.39,4.75c-0.35,0.1-1.24,0.49-1.53,0.49c-0.15,0-0.25-0.1-0.25-0.25
	c0-0.25,1.78-1.14,2.08-1.28c2.32-1.38,4.4-3.16,6.33-4.99c-1.93-0.84-3.95-1.43-5.98-1.93c0.84-1.14,1.63-2.37,2.32-3.61h-4.15
	l-0.89,0.69l-1.73-2.67c0.99,0.05,2.08,0.25,3.02,0.25h4.74c0.69-1.24,1.73-2.87,1.88-4.3h-2.87v1.04c-1.09,0.4-2.17,0.69-3.31,0.89
	c0.05-0.94,0.25-1.98,0.25-2.87v-5.19c0-0.4-0.15-0.89-0.2-1.29c-0.05-0.2-0.2-0.44-0.2-0.69c0-0.15,0.15-0.35,0.35-0.35
	c0.44,0,2.82,1.04,3.26,1.29h3.21v-3.46l-2.92,0.05v0.94c-1.14,0.4-2.32,0.69-3.56,0.89c0.3-2.32,0.35-4.7,0.25-7.02h-1.33
	l-0.89,0.64l-1.73-2.52c0.94,0.1,2.03,0.3,3.02,0.3c0.3,0,0.64,0,0.94-0.05v-4.45c0-0.59-0.49-1.38-0.49-1.78
	c0-0.15,0.1-0.3,0.25-0.35c1.48,0.35,3.01,1.19,4.35,1.78h2.13v-3.21c0-0.35,0-0.69-0.05-0.99c-0.1-0.49-0.44-0.94-0.44-1.38
	c0-0.25,0.05-0.3,0.3-0.3c0.69,0,4.79,1.04,4.79,2.08c0,0.44-0.94,0.89-1.24,1.04v2.77h2.67c0.15-0.25,1.19-1.68,1.53-1.68
	c0.35,0,3.36,2.08,3.36,2.52c0,0.35-0.89,0.84-1.14,0.99v3.06l0.3-0.05c0.2-0.2,1.04-1.19,1.38-1.19c0.4,0,2.03,2.03,2.03,2.42
	c0,0.25-0.2,0.35-0.4,0.35H198.55z M192.12,34.54h3.16v-3.66h-3.16V34.54z M188.76,15.76h-2.62l-0.3,0.54v2.62h2.92V15.76z
	 M188.76,20.6l-2.92-0.05v3.51h2.92V20.6z M186.09,45.42c1.53,0.25,3.11,0.54,4.65,0.84c1.09-1.24,1.98-2.42,2.77-3.91h-4.84
	L186.09,45.42z M188.76,30.89h-2.97l-0.4,0.35v3.31h3.36V30.89z M195.24,15.76h-3.11v3.16h3.11V15.76z M195.24,20.55l-3.11,0.05
	v3.46h3.11V20.55z M145.8,20.51c1.83,0.64,3.51,2.82,3.51,4.79c0,1.24-0.84,2.62-2.22,2.62c-0.64,0-1.48-0.49-1.73-1.14
	c-0.59-1.53-0.44-3.31-1.24-4.84c-0.15-0.3-1.19-1.83-1.19-1.98s0.25-0.15,0.35-0.15C143.68,19.81,145.41,20.36,145.8,20.51z
	 M169.04,27.18c0.69,0,3.41,2.57,3.41,3.21c0,0.4-0.35,0.69-0.74,0.69h-35.04l-0.89,0.64l-1.73-2.67c0.99,0.1,2.03,0.25,3.02,0.25
	h18.29c1.38-3.51,3.11-6.77,3.95-10.43h-19.13l-0.84,0.59l-1.73-2.67c0.94,0.1,2.03,0.3,3.01,0.3h23.43
	c0.25-0.25,1.83-2.08,2.37-2.08c0.35,0,0.79,0.44,1.04,0.69c0.35,0.3,2.27,1.98,2.27,2.67c0,0.44-0.54,0.49-0.89,0.49h-8.35
	c1.14,0.49,2.67,1.33,3.66,2.08c0.2,0.2,0.35,0.35,0.35,0.64c0,0.35-1.14,0.54-1.38,0.54c-1.88,2.42-3.95,4.7-5.73,7.17h9.24
	C166.86,29.11,168.49,27.18,169.04,27.18z M154.01,16.11c-0.89,0-1.63-0.59-1.98-1.33c-0.74-1.58-0.49-3.16-1.63-4.89
	c-0.05-0.1-1.14-1.58-1.14-1.63c0-0.15,0.05-0.25,0.25-0.25c0.79,0.15,1.68,0.49,2.47,0.69c1.14,0.35,2.18,0.89,2.97,1.78
	c0.69,0.79,1.48,1.73,1.48,2.87C156.43,14.67,155.44,16.11,154.01,16.11z M116.73,48.73c-3.46,2.13-6.97,4.15-10.78,5.54
	c-0.1,0.05-0.15,0.05-0.25,0.05c-0.15,0-0.3-0.1-0.3-0.25c0-0.35,1.48-1.14,1.78-1.29c3.06-1.98,5.78-4.55,8.3-7.17
	c1.98-2.13,4.35-4.5,5.78-7.02c0.49-0.84,1.09-1.83,1.38-2.82c0.1-0.25,0.1-0.49,0.35-0.64c1.04-0.05,4.74,3.07,4.74,4
	c0,0.54-1.38,0.69-1.73,0.74C123.5,42.9,120.09,46.65,116.73,48.73z M122.12,29.9c-2.57,2.57-5.44,4.84-8.45,6.82
	c-0.44,0.3-3.51,2.37-3.95,2.37c-0.1,0-0.2-0.1-0.2-0.2c0-0.15,0.05-0.25,0.15-0.34c2.37-2.32,4.6-4.7,6.67-7.32
	c1.19-1.53,2.67-3.21,3.51-4.94c0.2-0.4,1.38-2.97,1.53-3.01c0.69-0.05,4.5,2.72,4.5,3.46c0,0.59-0.84,0.64-1.24,0.69
	C123.75,28.17,122.91,29.06,122.12,29.9z M123.01,14.18c-3.11,3.95-6.08,7.32-9.99,10.48c-0.25,0.2-1.33,1.23-1.68,1.23
	c-0.1,0-0.2-0.15-0.2-0.25c0-0.35,0.89-1.28,1.09-1.53c1.48-1.83,2.82-4.3,4-6.33c0.99-1.78,2.37-4.4,2.87-6.33
	c0.1-0.4,0.15-1.83,0.59-1.83c0.1,0,0.3,0.15,0.35,0.2c0.2,0.15,0.44,0.25,0.69,0.4c0.84,0.4,3.81,2.37,3.81,3.36
	C124.54,13.98,123.26,14.18,123.01,14.18z M112.28,29.8H92.21l-0.84,0.64l-1.78-2.62c0.89,0.05,1.83,0.25,2.72,0.25h15.27
	c0.05-0.05,1.78-1.98,2.27-1.98c0.3,0,0.79,0.4,0.99,0.64c0.25,0.2,2.22,1.83,2.22,2.47C113.07,29.65,112.63,29.8,112.28,29.8z
	 M103.53,25.94c0,0.99-0.89,1.83-1.88,1.83c-1.63,0-1.78-1.93-2.18-3.11c-0.2-0.49-0.44-0.99-0.89-1.29
	c-0.2-0.15-0.59-0.4-0.59-0.64c0-0.2,0.25-0.2,0.35-0.2C100.07,22.53,103.53,23.87,103.53,25.94z M109.02,20.31
	c0,1.04,0.15,2.08,0.2,3.11c-1.38,0.35-2.82,0.59-4.2,0.74l0.1-1.93h-8.4v1.29c-1.29,0.44-2.72,0.94-4.05,1.04
	c0.05-1.24,0.25-2.52,0.25-3.71v-8.01c0-0.69-0.1-1.43-0.15-2.18c0-0.49-0.35-0.94-0.35-1.38c0-0.2,0.2-0.2,0.35-0.2
	c1.33,0,3.81,1.53,4.89,2.27h6.87c0.2-0.35,1.24-1.83,1.73-1.83c0.69,0,2.52,1.38,3.02,1.68c0.3,0.2,1.09,0.74,1.09,1.19
	c0,0.54-0.94,1.14-1.33,1.38V20.31z M105.12,13.04h-7.91l-0.49,0.3v2.92h8.4V13.04z M105.12,17.93h-8.4v2.62h8.4V17.93z
	 M76.59,54.17c-6.23,0-12.7,0.1-18.88-0.2c-4.2-0.2-5.83-0.79-5.83-5.24V27.57c0-1.29-0.05-2.52-0.05-3.81
	c-0.79,0.69-5.88,4.84-6.28,4.89c-0.2-0.54,2.57-3.95,2.82-4.25c2.47-3.11,4.89-6.87,7.07-10.23c0.54-0.89,1.93-3.02,2.18-4.05
	C57.66,9.88,57.95,8.2,58,8.1c0.05-0.05,0.2-0.05,0.25-0.05c0.44,0,5.83,2.22,5.83,3.31c0,0.59-1.38,0.94-1.83,1.09l-2.62,3.02h6.87
	c0.35-0.44,1.68-2.27,2.18-2.27c0.64,0,4.89,2.47,4.89,3.46c0,0.54-0.84,0.84-1.23,1.09c-0.64,0.35-1.19,0.84-1.68,1.33
	c-0.54,0.54-0.99,1.19-1.38,1.88l-2.32,4.15h6.43c0.35-0.3,1.78-2.08,2.22-2.08c0.49,0,2.92,1.88,3.31,2.12
	c0.35,0.3,0.94,0.69,0.94,1.19c0,0.59-1.09,1.24-1.43,1.53v8.9c0,1.09,0.1,2.18,0.15,3.21c-1.48,0.59-3.07,0.89-4.6,1.14l0.1-2.82
	H56.12l-0.05,9.69c0,0.44,0.05,1.19,0.3,1.53c0.64,0.84,3.06,0.64,4,0.64c0.84,0,1.63,0.05,2.47,0.1c3.56,0.1,7.17,0.1,10.77,0.1
	c0.99,0,3.07,0.1,3.91-0.4c0.49-0.25,0.74-0.74,0.99-1.24c0.79-1.73,1.28-3.71,1.88-5.54c0.05-0.15,0.15-0.25,0.3-0.25
	c0.2,0,0.25,0.1,0.25,0.25c0,1.19-0.05,2.37-0.05,3.56c0,2.03,0.4,2.42,2.18,3.41C81.53,53.57,80.24,54.17,76.59,54.17z
	 M67.39,36.57l6.67-0.05v-9.64h-5.88l-0.79,0.79V36.57z M66.75,17.19H58.4c-1.93,2.12-3.9,4.05-5.98,6.08
	c1.53,0.59,3.07,1.19,4.6,1.83h7.41C65.27,22.48,66.06,19.86,66.75,17.19z M63.29,36.57v-9.69h-6.57c-0.2,0.2-0.4,0.44-0.64,0.64
	v9.05H63.29z M32.88,27.13c0.1-0.15,1.83-2.13,2.27-2.13c0.3,0,0.79,0.49,0.99,0.69c0.35,0.35,2.22,1.98,2.22,2.62
	c0,0.44-0.35,0.54-0.74,0.54h-8.45c0.74,0.25,3.11,0.99,3.56,1.33c0.2,0.1,0.4,0.3,0.4,0.54c0,0.35-0.99,0.94-1.24,1.09v3.81h0.74
	c0.1-0.15,1.63-1.88,2.03-1.88c0.44,0,2.27,2.22,2.47,2.42c0.15,0.15,0.4,0.44,0.4,0.74c0,0.35-0.35,0.44-0.64,0.44H31.9v13.79
	c0,1.24-0.15,1.93-1.04,2.72c-1.43,1.29-2.82,1.24-4.65,1.24c-0.2-2.17-0.2-2.92-2.37-3.95c-0.35-0.15-1.58-0.54-1.58-0.94
	c0-0.2,0.15-0.25,0.35-0.25c1.19,0.1,2.47,0.25,3.71,0.25c0.89,0,1.43,0,1.43-1.09V37.36h-8.65L18.25,38l-1.78-2.67
	c0.99,0.1,2.08,0.3,3.07,0.3h8.21v-3.36c0-1.19-0.1-2.22-0.35-3.41h-8.85l-0.89,0.64l-1.78-2.67c0.99,0.1,2.08,0.3,3.07,0.3h5.63
	v-7.02h-4.3l-0.89,0.64l-1.73-2.67c0.94,0.1,2.03,0.3,3.02,0.3h3.9v-5.04c0-0.94,0-1.98-0.25-2.92c-0.1-0.35-0.49-1.09-0.49-1.38
	c0-0.25,0.3-0.4,0.54-0.4c0.69,0,4.7,1.09,5.14,1.48c0.1,0.1,0.25,0.3,0.25,0.49c0,0.3-0.89,1.04-1.09,1.19v6.57h2.13
	c0.2-0.2,1.73-1.98,2.27-1.98c0.35,0,0.69,0.4,0.89,0.59c0.25,0.25,2.22,2.18,2.22,2.72c0,0.3-0.3,0.4-0.54,0.4h-6.97v7.02H32.88z
	 M17.91,24.61h-4.84v8.21c0.89-0.4,4.45-2.12,4.6-2.12c0.1,0,0.35,0.1,0.35,0.2c0,0.2-0.3,0.44-0.4,0.54
	c-1.53,1.28-3.07,2.62-4.55,3.95v12.6c0,2.03,0.2,4.1,0.3,6.13c-1.43,0.54-2.97,0.89-4.45,1.19c0.1-2.12,0.3-4.3,0.35-6.43
	c0.05-3.46,0-6.97,0-10.43c-1.78,1.43-3.71,2.92-5.24,4.65L1.3,38.35c2.77-1.09,5.34-2.27,7.96-3.66V24.61H5.7
	c-0.89,2.37-1.93,4.8-3.26,6.97c-0.15,0.25-0.69,1.33-0.99,1.33c-0.2,0-0.3-0.2-0.3-0.35c0-0.35,0.15-0.79,0.25-1.14
	c0.4-1.68,0.69-3.36,0.94-5.04c0.44-2.62,0.89-5.39,0.89-8.06c0-0.89-0.2-1.83-0.2-2.72c0-0.25,0.15-0.3,0.35-0.3
	c0.4,0,4.2,1.24,4.6,1.48c0.2,0.15,0.4,0.3,0.4,0.54c0,0.34-0.74,0.89-0.94,1.09c-0.4,1.43-0.79,2.82-1.19,4.25h3.02v-9.94
	c0-0.54,0-1.14-0.1-1.68c-0.1-0.59-0.54-1.19-0.54-1.68c0-0.3,0.15-0.4,0.44-0.4c0.89,0,4.55,1.09,5.09,1.58
	c0.25,0.15,0.44,0.44,0.44,0.74c0,0.4-1.23,1.04-1.53,1.19v10.18h0.4c0.25-0.35,1.53-1.98,2.12-1.98c0.35,0,0.69,0.4,0.89,0.64
	c0.35,0.4,2.08,2.18,2.08,2.77C18.55,24.46,18.2,24.61,17.91,24.61z M19.59,39.44c1.68,0.84,3.76,3.01,3.76,4.99
	c0,1.04-0.69,2.47-1.93,2.47c-0.84,0-1.68-0.59-1.93-1.43c-0.35-1.19-0.15-2.42-0.54-3.56c-0.3-0.79-0.64-1.68-1.14-2.32
	c-0.05-0.15-0.49-0.69-0.49-0.79c0-0.15,0.15-0.25,0.3-0.25C18.01,38.55,19.24,39.24,19.59,39.44z M94.39,41.61l-1.58,0.2
	c0.1-1.09,0.25-2.32,0.25-3.41v-4.2c0-0.35-0.1-2.03-0.3-2.42c-0.1-0.15-0.2-0.35-0.2-0.54c0-0.2,0.25-0.2,0.4-0.2
	c0.99,0,3.76,1.33,4.7,1.88l7.17,0.05c0.35-0.44,1.09-1.68,1.78-1.68s2.27,1.23,2.77,1.58c0.3,0.2,0.84,0.54,0.84,0.99
	c0,0.59-0.69,0.84-1.14,1.09v4.1c0,0.64,0.15,1.43,0.2,2.08c-1.38,0.35-2.77,0.64-4.2,0.84l0.1-1.38h-3.36
	c0.49,0.2,2.42,0.84,2.42,1.33c0,0.35-0.69,0.79-0.94,0.94v7.71c0,3.26-2.12,3.56-4.84,3.81c-0.4-1.68-0.74-2.82-2.47-3.56
	c-0.2-0.1-1.53-0.59-1.53-0.79c0-0.25,0.25-0.3,0.44-0.3c1.14,0,2.27,0.25,3.36,0.25c0.74,0,1.29-0.3,1.29-1.14v-7.07
	c0-0.35-0.1-0.79-0.1-1.19h-2.57v0.44c-0.69,0.25-1.38,0.4-2.08,0.54c0.59,0.2,3.71,1.48,3.71,2.22c0,0.25-0.79,0.54-0.99,0.59
	c-1.19,1.14-6.72,6.23-7.27,6.23c-0.1-0.05-0.15-0.1-0.15-0.2c0-0.15,0.44-0.79,0.59-0.99C92.17,47,93.4,44.28,94.39,41.61z
	 M96.86,38.79h8.3v-4.2h-7.86l-0.44,0.49V38.79z M108.23,44.63c1.24,0.69,2.22,1.73,2.22,3.21c0,1.04-0.74,2.18-1.83,2.18
	c-0.64,0-1.29-0.4-1.53-0.99c-0.2-0.49-0.3-1.09-0.4-1.58c-0.25-1.23-0.84-2.82-1.83-3.71c-0.1-0.05-0.25-0.2-0.25-0.3
	c0-0.1,0.1-0.15,0.2-0.15C105.66,43.29,107.49,44.23,108.23,44.63z M141.7,35.48c-0.1-0.54-0.49-1.58-0.49-1.93
	c0-0.25,0.25-0.3,0.44-0.3c0.89,0,4.2,1.29,5.24,1.73h12.95c0.25-0.3,1.29-1.73,1.78-1.73c0.69,0,4.5,2.42,4.5,3.11
	c0,0.64-0.89,0.99-1.33,1.24v12.46c0,1.33,0.2,2.72,0.25,4.05c-1.58,0.49-3.21,0.94-4.89,0.99l0.2-2.67h-14.28v1.48
	c-1.48,0.39-3.02,0.59-4.55,0.79c0.1-1.38,0.3-2.87,0.3-4.25V38.05C141.8,37.21,141.8,36.32,141.7,35.48z M146.05,50.71h14.28
	l-0.05-6.18l-14.24-0.05V50.71z M146.05,42.7h14.28v-5.98h-13.74l-0.54,0.64V42.7z M277.65,46.21c0.54-0.74,2.42-3.11,2.72-3.91
	c0.05-0.2,0.2-0.84,0.4-0.84c0.44,0,5.29,2.18,5.29,2.92c0,0.44-1.48,0.74-1.78,0.84c-4.25,3.71-8.21,6.92-13.3,9.34
	c-0.2,0.05-0.59,0.3-0.74,0.3s-0.2-0.1-0.2-0.25c0-0.2,0.54-0.59,0.69-0.74C273.3,51.5,275.53,48.93,277.65,46.21z M290.21,42.9
	c0.79,0,3.46,1.48,4.2,1.88c2.03,1.04,6.08,3.56,6.82,5.73c0.25,0.64,0.49,1.38,0.49,2.13c0,1.29-0.94,2.12-2.22,2.12
	c-0.89,0-1.73-0.25-2.27-1.04c-1.53-2.32-2.08-4.99-4-7.27c-0.84-0.99-1.73-1.93-2.72-2.82c-0.1-0.1-0.54-0.44-0.59-0.59
	C290.06,42.9,290.11,42.9,290.21,42.9z M384.14,39.44c2.72,1.58,7.12,4.84,7.12,8.3c0,1.33-0.54,3.16-2.18,3.16
	c-0.74,0-1.38-0.15-1.83-0.79c-0.94-1.24-0.99-2.92-1.38-4.4c-0.35-1.29-0.99-2.72-1.68-3.91c-0.39-0.69-2.47-3.31-2.47-3.31
	c0-0.15,0.15-0.2,0.25-0.2C382.31,38.3,383.79,39.24,384.14,39.44z M410.59,41.76c0.79,0.84,1.58,1.88,1.58,3.11
	c0,1.14-0.49,2.52-1.88,2.52c-0.54,0-1.04-0.2-1.38-0.59c-0.35-0.44-0.49-0.99-0.54-1.53c-0.15-1.93-0.15-3.41-1.14-5.14
	c-0.2-0.3-0.49-0.69-0.49-1.09C407.62,38.89,410.05,41.17,410.59,41.76z M414.49,39.88c1.43,0.99,3.21,2.77,3.21,4.65
	c0,1.09-0.84,2.18-1.98,2.18c-0.49,0-0.94-0.2-1.29-0.59c-0.35-0.4-0.59-0.94-0.64-1.48c-0.25-2.08-0.25-3.26-1.38-5.09
	c-0.2-0.25-0.54-0.69-0.54-1.04C412.47,38.35,414.1,39.58,414.49,39.88z M420.43,40.13c0.2-1.53,0.44-3.06,0.44-4.65
	c0-0.4-0.05-0.74-0.05-1.14c-0.05-0.49-0.2-1.04-0.2-1.53c0-0.2,0.05-0.3,0.25-0.3c0.99,0,5.24,1.83,5.24,2.52
	c0,0.4-0.99,0.79-1.29,0.89c-0.74,6.62-1.38,12.16-6.87,16.61c-0.74,0.59-3.66,2.77-4.35,2.77c-0.1,0-0.2-0.05-0.2-0.15
	c0-0.34,1.43-1.83,1.68-2.08C418.89,48.78,419.64,45.57,420.43,40.13z M432.24,34.2c0,0.44-1.24,0.99-1.53,1.19v13.99
	c0,1.29,1.53,1.09,2.47,1.09c0.49,0,0.99,0,1.43-0.15c1.68-0.49,2.27-4.35,2.57-5.63c0.05-0.15,0.15-0.44,0.4-0.44
	c0.2,0,0.25,0.3,0.25,0.44v2.37c0,1.93,0.64,2.52,2.18,3.51c-1.29,3.41-2.32,3.95-5.93,3.95c-1.48,0-5.49,0.15-6.48-1.19
	c-0.4-0.59-0.49-1.33-0.49-2.03V34.99c0-0.49,0-0.99-0.15-1.48c-0.05-0.35-0.4-1.04-0.4-1.33c0-0.25,0.1-0.35,0.35-0.35
	C427.64,31.82,432.24,33.6,432.24,34.2z"/>
</svg>
