<svg id="圖層_1" data-name="圖層 1" xmlns="http://www.w3.org/2000/svg" viewBox="0 0 195.61 37.06"><defs><style>.cls-1{fill:#0071bc;}</style></defs><path d="M10.46,3.13H22.52c.4-.48.72-.89,1-1.21C24.28,1,24.88.6,25.2.6A8.08,8.08,0,0,1,28,2.2c1.36,1,2,1.77,2,2.17s-.32.72-1,1.2c-.84.56-1.24,1.12-1.24,1.6v25c0,1.44-.84,2.56-2.49,3.32a8.54,8.54,0,0,1-3.32.92c-.36,0-.68-.6-1-1.76-.4-1.44-1.89-2.6-4.49-3.57l.16-.8a19.57,19.57,0,0,0,5.29,1c.72,0,1.12-.4,1.12-1.24V22h-13c0,.84-.08,1.52-.12,2a15,15,0,0,1-1.49,4.85,16.44,16.44,0,0,1-2.84,4.17A17.76,17.76,0,0,1,.44,36.94L0,36.3a19.6,19.6,0,0,0,3.05-4.16,17.74,17.74,0,0,0,1.8-5.05c.6-2.41.92-7.58.92-15.51,0-4.93-.12-8.37-.32-10.34A24,24,0,0,1,10.46,3.13ZM23.16,21V13H10.3c0,3.37-.08,6.05-.12,8Zm0-9.06V4.21H10.3V11.9Z"/><path d="M44.44,15.79h10V4.21A22.81,22.81,0,0,0,54.13.6q2.77.3,5.29.72c1,.08,1.6.36,1.6.84,0,.2-.32.44-1,.69S59,3.49,59,3.89v11.9h8.46A11,11,0,0,0,68.88,14c1-1.32,1.64-2,1.84-2,.56,0,1.4.64,2.61,1.92s1.8,2.05,1.8,2.33c0,.44-.28.64-.8.64H63.07V29.73c0,1.2.16,1.93.56,2.25a11.86,11.86,0,0,0,3.24.24,9.83,9.83,0,0,0,2.33-.32c.64-.08,1-.73,1.2-2l1.44-6.57.92.16c.12,4.05.2,6.05.28,6.05a3,3,0,0,0,.73,1.72,2.38,2.38,0,0,1,1,1.61A2.69,2.69,0,0,1,74,35a7.27,7.27,0,0,1-3.09.92,17.27,17.27,0,0,1-4,.36c-2.56,0-4.44-.08-5.57-.2a2.87,2.87,0,0,1-1.8-1c-.64-.64-1-1.88-1-3.68V16.91H53.65A51.41,51.41,0,0,1,53,25.4a14.06,14.06,0,0,1-2.28,5A13.7,13.7,0,0,1,47,33.58a27.27,27.27,0,0,1-7,3l-.32-.48a22.48,22.48,0,0,0,4.36-3,12.5,12.5,0,0,0,2.73-3.57,14.45,14.45,0,0,0,1.52-4.05,48.08,48.08,0,0,0,.6-8.65H44.44c-2.29,0-3.89,0-4.85.12L39,15.47A32.31,32.31,0,0,0,44.44,15.79Zm5.08-8.26a5.31,5.31,0,0,1,1.33,3.57,3,3,0,0,1-.89,2,2.08,2.08,0,0,1-1.6.64q-1,0-1.56-2.28a19.11,19.11,0,0,0-3-6.29l.32-.64A15.48,15.48,0,0,1,49.52,7.53ZM69.6,4.45c1.48.44,2.24.84,2.24,1.16s-.44.68-1.32.76c-.68.12-1.08.28-1.2.52a16.2,16.2,0,0,1-2.81,3.53,19.14,19.14,0,0,1-4.4,3.32l-.44-.6a34.72,34.72,0,0,0,2.16-4.28,33.52,33.52,0,0,0,1.72-5.57C67.07,3.77,68.44,4.13,69.6,4.45Z"/><path d="M99.69,1.88c1.12.08,1.72.36,1.72.93,0,.2-.36.44-1,.76s-1,.68-1,1.12V33h7.81c.08-2,.16-3.89.16-5.65V16.59a64.07,64.07,0,0,0-.44-7.85c1.36.16,3.09.36,5.17.68,1.44.2,2.16.48,2.16.88s-.44.88-1.28,1.16a1.08,1.08,0,0,0-.88,1V27.37c0,2.6,0,5.17.12,7.69,0,.56-.76,1-2.2,1.24-.64.08-1.13.16-1.37.16-1,0-1.56-.48-1.56-1.4,0-.32,0-.64,0-1H86.67c0,.4,0,.84,0,1.24,0,.56-.77,1-2.21,1.28-.64.08-1.12.16-1.4.16q-1.56,0-1.56-1.44c.2-2.8.32-5.33.32-7.65V16.43a55.85,55.85,0,0,0-.48-7.81c1.36.12,3.08.36,5.17.68,1.44.16,2.16.48,2.16.88s-.44.84-1.28,1.12a1.08,1.08,0,0,0-.88,1V27.69c0,1.84,0,3.6.08,5.33h7.89V5A17,17,0,0,0,94,1.08C96,1.28,97.85,1.56,99.69,1.88Z"/><path d="M134.15,7.61c1,.32,1.52.64,1.52,1s-.32.6-.88.68-.92.24-1,.4c-.24.68-.53,1.28-.77,1.84a8.64,8.64,0,0,1,2.33,1.2,4.21,4.21,0,0,1,.56.8,30.23,30.23,0,0,0,1.6-4A36.12,36.12,0,0,0,139.44,0c1.16.4,2.12.68,2.84.92,1.76.52,2.64,1,2.64,1.4s-.28.57-.8.73-.84.36-.92.68a48.44,48.44,0,0,1-2.12,4.81l.76.36h2.92A16.13,16.13,0,0,0,145.53,6a30.6,30.6,0,0,0,.64-5.09c1,.36,1.88.64,2.52.88,1.52.48,2.33.93,2.33,1.33,0,.24-.24.44-.73.52s-.76.28-.84.56a15.2,15.2,0,0,1-1.76,3,17.21,17.21,0,0,1-1.64,1.73h2.64l1.08-1.21c1-1.16,1.57-1.76,1.89-1.76s1.12.64,2.48,1.92c.84.81,1.28,1.33,1.28,1.53,0,.44-.28.64-.8.64h-5.49v6c.16-.16.4-.44.8-.84.8-.92,1.33-1.41,1.57-1.41a8,8,0,0,1,2.16,1.61c.72.64,1.12,1.08,1.12,1.24a.56.56,0,0,1-.64.6h-5V23.8c.16-.16.4-.44.8-.84.8-.88,1.33-1.36,1.57-1.36a7.21,7.21,0,0,1,2.16,1.56c.72.68,1.12,1.08,1.12,1.24a.57.57,0,0,1-.64.64h-5v7.34a11,11,0,0,0,.8-.92c1-1.13,1.57-1.73,1.89-1.73a9.06,9.06,0,0,1,2.48,1.93c.8.8,1.24,1.32,1.24,1.52,0,.4-.28.6-.76.6H142.12v2c0,.48-.64.88-1.92,1.12a10.32,10.32,0,0,1-1.25.12c-1,0-1.4-.44-1.4-1.24a51.42,51.42,0,0,0,.32-5.61V13.42c-.72.93-1.48,1.77-2.2,2.53h-.12a.5.5,0,0,1-.08.12,1.52,1.52,0,0,1-1.2.52q-.48,0-.84-1.32a14.28,14.28,0,0,0-1.05-2.53,11.65,11.65,0,0,1-1,1.69,20.06,20.06,0,0,1-2.28,2.72c.4.08.84.16,1.24.2,1.48.16,2.24.44,2.24.8s-.4.8-1.2,1a1,1,0,0,0-.84,1v1.08h1.28a9.53,9.53,0,0,0,1-1.24c.73-.93,1.17-1.41,1.33-1.41.4,0,1.08.48,2,1.41s1.32,1.52,1.32,1.72a.53.53,0,0,1-.6.6H130.5v2a16.49,16.49,0,0,1,4.61,2,3.46,3.46,0,0,1,1.36,2.64,2.33,2.33,0,0,1-.76,1.64,1.54,1.54,0,0,1-1.28.56c-.68,0-1.29-.56-1.77-1.76a12.5,12.5,0,0,0-2.16-3.48V36c0,.44-.6.76-1.76,1-.56,0-1,.08-1.21.08-.84,0-1.24-.28-1.24-.76.08-.72.16-1.24.16-1.56V28.29a19.85,19.85,0,0,1-7.69,5.49l-.12-.44a24.3,24.3,0,0,0,4.17-4.65,29.11,29.11,0,0,0,3.08-6.33h-1.64c-2.28,0-3.89.08-4.85.16L118.76,21a32.31,32.31,0,0,0,5.49.32h2.2V20a16,16,0,0,0-.32-3.29c.48.08,1,.12,1.69.2a37.92,37.92,0,0,0,1.72-4.25,48.77,48.77,0,0,0,1.28-6C131.94,7.05,133.06,7.33,134.15,7.61ZM130,1.28c1,0,1.48.28,1.48.72,0,.2-.32.44-.92.73s-1,.6-1,1V5h2.2c.08,0,.44-.52,1.16-1.4.81-1,1.33-1.61,1.49-1.61.4,0,1.08.52,2,1.57a6.63,6.63,0,0,1,1.4,1.88.57.57,0,0,1-.64.64H124.57c-2.28,0-3.89.08-4.85.16l-.64-1.56a32.39,32.39,0,0,0,5.49.32h.8V3.89A19.06,19.06,0,0,0,125.05.6C126.73.76,128.38,1,130,1.28Zm-4.29,6.33c1,.32,1.52.64,1.52,1s-.32.6-.88.68-.92.24-1,.4c-.16.48-.36.92-.52,1.32a8.94,8.94,0,0,1,2.52,1.32,2.65,2.65,0,0,1,.81,1.89,2.3,2.3,0,0,1-.77,1.64,1.54,1.54,0,0,1-1.28.56c-.32,0-.6-.44-.8-1.4a13.61,13.61,0,0,0-1-2.81A12.65,12.65,0,0,1,123,14.51a25.31,25.31,0,0,1-3.29,4l-.48-.48a40.31,40.31,0,0,0,2-5.21,43.72,43.72,0,0,0,1.17-6C123.49,7.05,124.61,7.33,125.69,7.61ZM145.09,10h-3v6.09h3Zm0,7.17h-3v6.73h3Zm0,15.51V25h-3V32.7Z"/><path d="M164,7.17h4.4a10.49,10.49,0,0,0,1.17-1.36c.8-1,1.32-1.6,1.48-1.6q.6,0,2,1.56c.92,1,1.4,1.64,1.4,1.88,0,.4-.16.6-.44.6a33.76,33.76,0,0,0,4.53.21h3.29V3.73a19.06,19.06,0,0,0-.32-3.29c1.68.16,3.32.4,4.93.68,1,0,1.48.28,1.48.76,0,.16-.32.4-.88.68s-1,.65-1,1V8.46H188a15.06,15.06,0,0,0,1.32-1.61c.92-1.2,1.48-1.84,1.64-1.84.48,0,1.29.6,2.41,1.76S195,8.66,195,8.9c0,.44-.28.64-.8.64h-8.14V16h1.73a18.4,18.4,0,0,0,1.32-1.52c.92-1.17,1.48-1.77,1.64-1.77.48,0,1.28.6,2.33,1.73s1.6,1.8,1.6,2c0,.4-.28.6-.8.6H180.14c-2.32,0-3.92.08-4.84.16l-.65-1.56a32.16,32.16,0,0,0,5.49.32h1.73V9.54h-3.29c-2.32,0-3.93.08-4.85.16l-.56-1.41H164c-2.29,0-3.89.09-4.85.17l-.6-1.57A37.3,37.3,0,0,0,164,7.17Zm1.56-4.52h1.6s.36-.45,1-1.25S169.33,0,169.49,0c.4,0,1,.48,1.92,1.4s1.36,1.53,1.36,1.73a.53.53,0,0,1-.6.6h-6.61c-2.29,0-3.89.08-4.85.16l-.6-1.57A31.28,31.28,0,0,0,165.56,2.65Zm0,9.53h1.12a10.06,10.06,0,0,0,1.16-1.36c.8-1,1.33-1.6,1.49-1.6q.6,0,2,1.56c.92,1,1.4,1.64,1.4,1.88,0,.44-.2.64-.6.64h-6.61c-2.29,0-3.89.08-4.85.16l-.6-1.56A37.3,37.3,0,0,0,165.56,12.18Zm.32,5.33h1A8.11,8.11,0,0,0,168,16.19c.8-1,1.33-1.48,1.49-1.48.4,0,1,.52,1.92,1.48a6.61,6.61,0,0,1,1.36,1.8c0,.44-.2.64-.6.64h-6.29c-2.28,0-3.89,0-4.85.12l-.6-1.56A31.56,31.56,0,0,0,165.88,17.51Zm-.24,5.65H167c.52-.6,1-1.12,1.52-1.6a1.32,1.32,0,0,1,1-.6,7.45,7.45,0,0,1,2.12,1c1.28.88,2,1.48,2,1.8a1.33,1.33,0,0,1-.72,1.08,1.4,1.4,0,0,0-.56,1.13v3.32a4.16,4.16,0,0,1,1-1.2,8,8,0,0,0,2-2.16,10.41,10.41,0,0,0,1.2-3.41l.92.16a56.55,56.55,0,0,1-.28,6.61A5.5,5.5,0,0,1,176.1,32a1.44,1.44,0,0,1-1,.4,3.15,3.15,0,0,1-2.21-.76,2,2,0,0,1-.64-1.05v.24c0,1.13,0,2.61.16,4.53,0,.52-.64.92-1.88,1.16a10.2,10.2,0,0,1-1.24.12,1,1,0,0,1-1.09-1.12V33.78H164.8v1.88c0,.48-.6.88-1.81,1.16a9.3,9.3,0,0,1-1.16.12,1.13,1.13,0,0,1-1.28-1.28c.08-1.28.16-2.52.16-3.72V26.61c0-1.85-.12-3.61-.28-5.33A37.37,37.37,0,0,1,165.64,23.16Zm2.6,9.54V24.24H164.8V32.7Zm14.55-11A8.52,8.52,0,0,1,184,22a14.53,14.53,0,0,0-2.8-3.69l.32-.64a22.47,22.47,0,0,1,5.65,1.92,2.87,2.87,0,0,1,1.4,2.33,2.88,2.88,0,0,1-.92,2,2,2,0,0,1-1.61.68c-.64,0-1.16-.52-1.6-1.56a2.66,2.66,0,0,1-1,.6,1,1,0,0,0-.84,1v5.17c0,1,.28,1.56.88,1.81a5,5,0,0,0,2.36.4,3.2,3.2,0,0,0,1.81-.36,2.64,2.64,0,0,0,.64-1.53c.16-.92.4-2.24.72-3.92h1c.12,1.76.2,3,.28,3.68a2.73,2.73,0,0,0,.88,1.85c.88.56,1.33,1,1.33,1.36a1.84,1.84,0,0,1-.77,1.44,5.46,5.46,0,0,1-2.24.84,16.66,16.66,0,0,1-3.61.36,28.43,28.43,0,0,1-4.24-.24,3.71,3.71,0,0,1-1.93-.72c-.76-.48-1.12-1.52-1.12-3.08v-5a36.77,36.77,0,0,0-.32-5.49C179.46,21.24,181,21.44,182.79,21.72Zm11.22,3a4.7,4.7,0,0,1,1.6,3,3.06,3.06,0,0,1-1,2.4,2.24,2.24,0,0,1-1.6.56,1.08,1.08,0,0,1-.89-.48,4.19,4.19,0,0,1-.64-2,22.58,22.58,0,0,0-1.76-5.61l.48-.32A16,16,0,0,1,194,24.72Z"/><path class="cls-1" d="M10.46,3.13H22.52c.4-.48.72-.89,1-1.21C24.28,1,24.88.6,25.2.6A8.08,8.08,0,0,1,28,2.2c1.36,1,2,1.77,2,2.17s-.32.72-1,1.2c-.84.56-1.24,1.12-1.24,1.6v25c0,1.44-.84,2.56-2.49,3.32a8.54,8.54,0,0,1-3.32.92c-.36,0-.68-.6-1-1.76-.4-1.44-1.89-2.6-4.49-3.57l.16-.8a19.57,19.57,0,0,0,5.29,1c.72,0,1.12-.4,1.12-1.24V22h-13c0,.84-.08,1.52-.12,2a15,15,0,0,1-1.49,4.85,16.44,16.44,0,0,1-2.84,4.17A17.76,17.76,0,0,1,.44,36.94L0,36.3a19.6,19.6,0,0,0,3.05-4.16,17.74,17.74,0,0,0,1.8-5.05c.6-2.41.92-7.58.92-15.51,0-4.93-.12-8.37-.32-10.34A24,24,0,0,1,10.46,3.13ZM23.16,21V13H10.3c0,3.37-.08,6.05-.12,8Zm0-9.06V4.21H10.3V11.9Z"/><path class="cls-1" d="M44.44,15.79h10V4.21A22.81,22.81,0,0,0,54.13.6q2.77.3,5.29.72c1,.08,1.6.36,1.6.84,0,.2-.32.44-1,.69S59,3.49,59,3.89v11.9h8.46A11,11,0,0,0,68.88,14c1-1.32,1.64-2,1.84-2,.56,0,1.4.64,2.61,1.92s1.8,2.05,1.8,2.33c0,.44-.28.64-.8.64H63.07V29.73c0,1.2.16,1.93.56,2.25a11.86,11.86,0,0,0,3.24.24,9.83,9.83,0,0,0,2.33-.32c.64-.08,1-.73,1.2-2l1.44-6.57.92.16c.12,4.05.2,6.05.28,6.05a3,3,0,0,0,.73,1.72,2.38,2.38,0,0,1,1,1.61A2.69,2.69,0,0,1,74,35a7.27,7.27,0,0,1-3.09.92,17.27,17.27,0,0,1-4,.36c-2.56,0-4.44-.08-5.57-.2a2.87,2.87,0,0,1-1.8-1c-.64-.64-1-1.88-1-3.68V16.91H53.65A51.41,51.41,0,0,1,53,25.4a14.06,14.06,0,0,1-2.28,5A13.7,13.7,0,0,1,47,33.58a27.27,27.27,0,0,1-7,3l-.32-.48a22.48,22.48,0,0,0,4.36-3,12.5,12.5,0,0,0,2.73-3.57,14.45,14.45,0,0,0,1.52-4.05,48.08,48.08,0,0,0,.6-8.65H44.44c-2.29,0-3.89,0-4.85.12L39,15.47A32.31,32.31,0,0,0,44.44,15.79Zm5.08-8.26a5.31,5.31,0,0,1,1.33,3.57,3,3,0,0,1-.89,2,2.08,2.08,0,0,1-1.6.64q-1,0-1.56-2.28a19.11,19.11,0,0,0-3-6.29l.32-.64A15.48,15.48,0,0,1,49.52,7.53ZM69.6,4.45c1.48.44,2.24.84,2.24,1.16s-.44.68-1.32.76c-.68.12-1.08.28-1.2.52a16.2,16.2,0,0,1-2.81,3.53,19.14,19.14,0,0,1-4.4,3.32l-.44-.6a34.72,34.72,0,0,0,2.16-4.28,33.52,33.52,0,0,0,1.72-5.57C67.07,3.77,68.44,4.13,69.6,4.45Z"/><path class="cls-1" d="M99.69,1.88c1.12.08,1.72.36,1.72.93,0,.2-.36.44-1,.76s-1,.68-1,1.12V33h7.81c.08-2,.16-3.89.16-5.65V16.59a64.07,64.07,0,0,0-.44-7.85c1.36.16,3.09.36,5.17.68,1.44.2,2.16.48,2.16.88s-.44.88-1.28,1.16a1.08,1.08,0,0,0-.88,1V27.37c0,2.6,0,5.17.12,7.69,0,.56-.76,1-2.2,1.24-.64.08-1.13.16-1.37.16-1,0-1.56-.48-1.56-1.4,0-.32,0-.64,0-1H86.67c0,.4,0,.84,0,1.24,0,.56-.77,1-2.21,1.28-.64.08-1.12.16-1.4.16q-1.56,0-1.56-1.44c.2-2.8.32-5.33.32-7.65V16.43a55.85,55.85,0,0,0-.48-7.81c1.36.12,3.08.36,5.17.68,1.44.16,2.16.48,2.16.88s-.44.84-1.28,1.12a1.08,1.08,0,0,0-.88,1V27.69c0,1.84,0,3.6.08,5.33h7.89V5A17,17,0,0,0,94,1.08C96,1.28,97.85,1.56,99.69,1.88Z"/><path class="cls-1" d="M134.15,7.61c1,.32,1.52.64,1.52,1s-.32.6-.88.68-.92.24-1,.4c-.24.68-.53,1.28-.77,1.84a8.64,8.64,0,0,1,2.33,1.2,4.21,4.21,0,0,1,.56.8,30.23,30.23,0,0,0,1.6-4A36.12,36.12,0,0,0,139.44,0c1.16.4,2.12.68,2.84.92,1.76.52,2.64,1,2.64,1.4s-.28.57-.8.73-.84.36-.92.68a48.44,48.44,0,0,1-2.12,4.81l.76.36h2.92A16.13,16.13,0,0,0,145.53,6a30.6,30.6,0,0,0,.64-5.09c1,.36,1.88.64,2.52.88,1.52.48,2.33.93,2.33,1.33,0,.24-.24.44-.73.52s-.76.28-.84.56a15.2,15.2,0,0,1-1.76,3,17.21,17.21,0,0,1-1.64,1.73h2.64l1.08-1.21c1-1.16,1.57-1.76,1.89-1.76s1.12.64,2.48,1.92c.84.81,1.28,1.33,1.28,1.53,0,.44-.28.64-.8.64h-5.49v6c.16-.16.4-.44.8-.84.8-.92,1.33-1.41,1.57-1.41a8,8,0,0,1,2.16,1.61c.72.64,1.12,1.08,1.12,1.24a.56.56,0,0,1-.64.6h-5V23.8c.16-.16.4-.44.8-.84.8-.88,1.33-1.36,1.57-1.36a7.21,7.21,0,0,1,2.16,1.56c.72.68,1.12,1.08,1.12,1.24a.57.57,0,0,1-.64.64h-5v7.34a11,11,0,0,0,.8-.92c1-1.13,1.57-1.73,1.89-1.73a9.06,9.06,0,0,1,2.48,1.93c.8.8,1.24,1.32,1.24,1.52,0,.4-.28.6-.76.6H142.12v2c0,.48-.64.88-1.92,1.12a10.32,10.32,0,0,1-1.25.12c-1,0-1.4-.44-1.4-1.24a51.42,51.42,0,0,0,.32-5.61V13.42c-.72.93-1.48,1.77-2.2,2.53h-.12a.5.5,0,0,1-.08.12,1.52,1.52,0,0,1-1.2.52q-.48,0-.84-1.32a14.28,14.28,0,0,0-1.05-2.53,11.65,11.65,0,0,1-1,1.69,20.06,20.06,0,0,1-2.28,2.72c.4.08.84.16,1.24.2,1.48.16,2.24.44,2.24.8s-.4.8-1.2,1a1,1,0,0,0-.84,1v1.08h1.28a9.53,9.53,0,0,0,1-1.24c.73-.93,1.17-1.41,1.33-1.41.4,0,1.08.48,2,1.41s1.32,1.52,1.32,1.72a.53.53,0,0,1-.6.6H130.5v2a16.49,16.49,0,0,1,4.61,2,3.46,3.46,0,0,1,1.36,2.64,2.33,2.33,0,0,1-.76,1.64,1.54,1.54,0,0,1-1.28.56c-.68,0-1.29-.56-1.77-1.76a12.5,12.5,0,0,0-2.16-3.48V36c0,.44-.6.76-1.76,1-.56,0-1,.08-1.21.08-.84,0-1.24-.28-1.24-.76.08-.72.16-1.24.16-1.56V28.29a19.85,19.85,0,0,1-7.69,5.49l-.12-.44a24.3,24.3,0,0,0,4.17-4.65,29.11,29.11,0,0,0,3.08-6.33h-1.64c-2.28,0-3.89.08-4.85.16L118.76,21a32.31,32.31,0,0,0,5.49.32h2.2V20a16,16,0,0,0-.32-3.29c.48.08,1,.12,1.69.2a37.92,37.92,0,0,0,1.72-4.25,48.77,48.77,0,0,0,1.28-6C131.94,7.05,133.06,7.33,134.15,7.61ZM130,1.28c1,0,1.48.28,1.48.72,0,.2-.32.44-.92.73s-1,.6-1,1V5h2.2c.08,0,.44-.52,1.16-1.4.81-1,1.33-1.61,1.49-1.61.4,0,1.08.52,2,1.57a6.63,6.63,0,0,1,1.4,1.88.57.57,0,0,1-.64.64H124.57c-2.28,0-3.89.08-4.85.16l-.64-1.56a32.39,32.39,0,0,0,5.49.32h.8V3.89A19.06,19.06,0,0,0,125.05.6C126.73.76,128.38,1,130,1.28Zm-4.29,6.33c1,.32,1.52.64,1.52,1s-.32.6-.88.68-.92.24-1,.4c-.16.48-.36.92-.52,1.32a8.94,8.94,0,0,1,2.52,1.32,2.65,2.65,0,0,1,.81,1.89,2.3,2.3,0,0,1-.77,1.64,1.54,1.54,0,0,1-1.28.56c-.32,0-.6-.44-.8-1.4a13.61,13.61,0,0,0-1-2.81A12.65,12.65,0,0,1,123,14.51a25.31,25.31,0,0,1-3.29,4l-.48-.48a40.31,40.31,0,0,0,2-5.21,43.72,43.72,0,0,0,1.17-6C123.49,7.05,124.61,7.33,125.69,7.61ZM145.09,10h-3v6.09h3Zm0,7.17h-3v6.73h3Zm0,15.51V25h-3V32.7Z"/><path class="cls-1" d="M164,7.17h4.4a10.49,10.49,0,0,0,1.17-1.36c.8-1,1.32-1.6,1.48-1.6q.6,0,2,1.56c.92,1,1.4,1.64,1.4,1.88,0,.4-.16.6-.44.6a33.76,33.76,0,0,0,4.53.21h3.29V3.73a19.06,19.06,0,0,0-.32-3.29c1.68.16,3.32.4,4.93.68,1,0,1.48.28,1.48.76,0,.16-.32.4-.88.68s-1,.65-1,1V8.46H188a15.06,15.06,0,0,0,1.32-1.61c.92-1.2,1.48-1.84,1.64-1.84.48,0,1.29.6,2.41,1.76S195,8.66,195,8.9c0,.44-.28.64-.8.64h-8.14V16h1.73a18.4,18.4,0,0,0,1.32-1.52c.92-1.17,1.48-1.77,1.64-1.77.48,0,1.28.6,2.33,1.73s1.6,1.8,1.6,2c0,.4-.28.6-.8.6H180.14c-2.32,0-3.92.08-4.84.16l-.65-1.56a32.16,32.16,0,0,0,5.49.32h1.73V9.54h-3.29c-2.32,0-3.93.08-4.85.16l-.56-1.41H164c-2.29,0-3.89.09-4.85.17l-.6-1.57A37.3,37.3,0,0,0,164,7.17Zm1.56-4.52h1.6s.36-.45,1-1.25S169.33,0,169.49,0c.4,0,1,.48,1.92,1.4s1.36,1.53,1.36,1.73a.53.53,0,0,1-.6.6h-6.61c-2.29,0-3.89.08-4.85.16l-.6-1.57A31.28,31.28,0,0,0,165.56,2.65Zm0,9.53h1.12a10.06,10.06,0,0,0,1.16-1.36c.8-1,1.33-1.6,1.49-1.6q.6,0,2,1.56c.92,1,1.4,1.64,1.4,1.88,0,.44-.2.64-.6.64h-6.61c-2.29,0-3.89.08-4.85.16l-.6-1.56A37.3,37.3,0,0,0,165.56,12.18Zm.32,5.33h1A8.11,8.11,0,0,0,168,16.19c.8-1,1.33-1.48,1.49-1.48.4,0,1,.52,1.92,1.48a6.61,6.61,0,0,1,1.36,1.8c0,.44-.2.64-.6.64h-6.29c-2.28,0-3.89,0-4.85.12l-.6-1.56A31.56,31.56,0,0,0,165.88,17.51Zm-.24,5.65H167c.52-.6,1-1.12,1.52-1.6a1.32,1.32,0,0,1,1-.6,7.45,7.45,0,0,1,2.12,1c1.28.88,2,1.48,2,1.8a1.33,1.33,0,0,1-.72,1.08,1.4,1.4,0,0,0-.56,1.13v3.32a4.16,4.16,0,0,1,1-1.2,8,8,0,0,0,2-2.16,10.41,10.41,0,0,0,1.2-3.41l.92.16a56.55,56.55,0,0,1-.28,6.61A5.5,5.5,0,0,1,176.1,32a1.44,1.44,0,0,1-1,.4,3.15,3.15,0,0,1-2.21-.76,2,2,0,0,1-.64-1.05v.24c0,1.13,0,2.61.16,4.53,0,.52-.64.92-1.88,1.16a10.2,10.2,0,0,1-1.24.12,1,1,0,0,1-1.09-1.12V33.78H164.8v1.88c0,.48-.6.88-1.81,1.16a9.3,9.3,0,0,1-1.16.12,1.13,1.13,0,0,1-1.28-1.28c.08-1.28.16-2.52.16-3.72V26.61c0-1.85-.12-3.61-.28-5.33A37.37,37.37,0,0,1,165.64,23.16Zm2.6,9.54V24.24H164.8V32.7Zm14.55-11A8.52,8.52,0,0,1,184,22a14.53,14.53,0,0,0-2.8-3.69l.32-.64a22.47,22.47,0,0,1,5.65,1.92,2.87,2.87,0,0,1,1.4,2.33,2.88,2.88,0,0,1-.92,2,2,2,0,0,1-1.61.68c-.64,0-1.16-.52-1.6-1.56a2.66,2.66,0,0,1-1,.6,1,1,0,0,0-.84,1v5.17c0,1,.28,1.56.88,1.81a5,5,0,0,0,2.36.4,3.2,3.2,0,0,0,1.81-.36,2.64,2.64,0,0,0,.64-1.53c.16-.92.4-2.24.72-3.92h1c.12,1.76.2,3,.28,3.68a2.73,2.73,0,0,0,.88,1.85c.88.56,1.33,1,1.33,1.36a1.84,1.84,0,0,1-.77,1.44,5.46,5.46,0,0,1-2.24.84,16.66,16.66,0,0,1-3.61.36,28.43,28.43,0,0,1-4.24-.24,3.71,3.71,0,0,1-1.93-.72c-.76-.48-1.12-1.52-1.12-3.08v-5a36.77,36.77,0,0,0-.32-5.49C179.46,21.24,181,21.44,182.79,21.72Zm11.22,3a4.7,4.7,0,0,1,1.6,3,3.06,3.06,0,0,1-1,2.4,2.24,2.24,0,0,1-1.6.56,1.08,1.08,0,0,1-.89-.48,4.19,4.19,0,0,1-.64-2,22.58,22.58,0,0,0-1.76-5.61l.48-.32A16,16,0,0,1,194,24.72Z"/></svg>